<?xml version="1.0" encoding="UTF-8" standalone="yes"?>
<!-- Generated by https://github.com/RazrFalcon/barh -->
<svg height="392" shape-rendering="crispEdges" width="841" xmlns="http://www.w3.org/2000/svg">
    <rect width="841" height="392" fill="white"/>
    <text font-family="Arial" font-size="16" x="52" y="38">resvg 0.19.0</text>
    <text font-family="Arial" font-size="16" x="4" y="69">Chromium r901419</text>
    <text font-family="Arial" font-size="16" x="71" y="104">Firefox 91</text>
    <text font-family="Arial" font-size="16" x="52" y="137">Safari 14.1.1</text>
    <text font-family="Arial" font-size="16" x="52" y="170">Inkscape 1.1</text>
    <text font-family="Arial" font-size="16" x="45" y="203">librsvg 2.50.7</text>
    <text font-family="Arial" font-size="16" x="70" y="234">Batik 1.14</text>
    <text font-family="Arial" font-size="16" x="31" y="269">SVG.NET 3.2.3</text>
    <text font-family="Arial" font-size="16" x="56" y="300">QtSvg 6.1.2</text>
    <text font-family="Arial" font-size="16" x="48" y="333">wxSvg 1.5.11</text>
    <rect fill="#ccc" height="341" width="1" x="144" y="10"/>
    <text fill="#000" font-family="Arial" font-size="16" x="140" y="365">0</text>
    <rect fill="#ccc" height="341" width="1" x="314" y="10"/>
    <text fill="#000" font-family="Arial" font-size="16" x="307" y="365">31</text>
    <rect fill="#ccc" height="341" width="1" x="485" y="10"/>
    <text fill="#000" font-family="Arial" font-size="16" x="477" y="365">63</text>
    <rect fill="#ccc" height="341" width="1" x="656" y="10"/>
    <text fill="#000" font-family="Arial" font-size="16" x="648" y="365">94</text>
    <rect fill="#ccc" height="341" width="1" x="827" y="10"/>
    <text fill="#000" font-family="Arial" font-size="16" x="814" y="365">125</text>
    <rect fill="#3260cd" height="22" width="442" x="144" y="21"/>
    <text fill="#fff" font-family="Arial" font-size="16" x="567" y="38">81</text>
    <rect fill="#3260cd" height="22" width="622" x="144" y="54"/>
    <text fill="#fff" font-family="Arial" font-size="16" x="737" y="69">114</text>
    <rect fill="#3260cd" height="22" width="595" x="144" y="87"/>
    <text fill="#fff" font-family="Arial" font-size="16" x="709" y="104">109</text>
    <rect fill="#3260cd" height="22" width="316" x="144" y="120"/>
    <text fill="#fff" font-family="Arial" font-size="16" x="439" y="137">58</text>
    <rect fill="#3260cd" height="22" width="191" x="144" y="153"/>
    <text fill="#fff" font-family="Arial" font-size="16" x="314" y="170">35</text>
    <rect fill="#3260cd" height="22" width="262" x="144" y="186"/>
    <text fill="#fff" font-family="Arial" font-size="16" x="385" y="203">48</text>
    <rect fill="#3260cd" height="22" width="10" x="144" y="219"/>
    <rect fill="#999" height="1" width="12" x="154" y="230"/>
    <text fill="#000" font-family="Arial" font-size="16" x="168" y="234">2</text>
    <rect fill="#3260cd" height="22" width="32" x="144" y="252"/>
    <text fill="#fff" font-family="Arial" font-size="16" x="164" y="269">6</text>
    <rect fill="#3260cd" height="22" width="38" x="144" y="285"/>
    <text fill="#fff" font-family="Arial" font-size="16" x="170" y="300">7</text>
    <rect fill="#3260cd" height="22" width="38" x="144" y="318"/>
    <text fill="#fff" font-family="Arial" font-size="16" x="170" y="333">7</text>
    <rect fill="#333" height="341" width="1" x="144" y="10"/>
    <text font-family="Arial" font-size="16" font-style="italic" x="444" y="387">Tests passed</text>
</svg>
