<?xml version="1.0" encoding="UTF-8" standalone="yes"?>
<!-- Generated by https://github.com/RazrFalcon/barh -->
<svg height="359" shape-rendering="crispEdges" width="814" xmlns="http://www.w3.org/2000/svg">
    <rect width="814" height="359" fill="white"/>
    <text font-family="Arial" font-size="16" x="25" y="38">resvg 0.28.0</text>
    <text font-family="Arial" font-size="16" x="25" y="71">Chrome 105</text>
    <text font-family="Arial" font-size="16" x="34" y="104">Firefox 107</text>
    <text font-family="Arial" font-size="16" x="38" y="135">Safari 16.1</text>
    <text font-family="Arial" font-size="16" x="12" y="170">Inkscape 1.2.1</text>
    <text font-family="Arial" font-size="16" x="21" y="203">librsvg 2.55.1</text>
    <text font-family="Arial" font-size="16" x="42" y="234">Batik 1.16</text>
    <text font-family="Arial" font-size="16" x="4" y="267">SVG.NET 3.2.3</text>
    <text font-family="Arial" font-size="16" x="29" y="300">QtSvg 6.4.0</text>
    <rect fill="#ccc" height="308" width="1" x="117" y="10"/>
    <text fill="#000" font-family="Arial" font-size="16" x="113" y="332">0</text>
    <rect fill="#ccc" height="308" width="1" x="287" y="10"/>
    <text fill="#000" font-family="Arial" font-size="16" x="279" y="332">37</text>
    <rect fill="#ccc" height="308" width="1" x="458" y="10"/>
    <text fill="#000" font-family="Arial" font-size="16" x="450" y="332">73</text>
    <rect fill="#ccc" height="308" width="1" x="629" y="10"/>
    <text fill="#000" font-family="Arial" font-size="16" x="617" y="332">110</text>
    <rect fill="#ccc" height="308" width="1" x="800" y="10"/>
    <text fill="#000" font-family="Arial" font-size="16" x="787" y="332">146</text>
    <rect fill="#3260cd" height="22" width="584" x="117" y="21"/>
    <text fill="#fff" font-family="Arial" font-size="16" x="671" y="38">125</text>
    <rect fill="#3260cd" height="22" width="626" x="117" y="54"/>
    <text fill="#fff" font-family="Arial" font-size="16" x="713" y="71">134</text>
    <rect fill="#3260cd" height="22" width="617" x="117" y="87"/>
    <text fill="#fff" font-family="Arial" font-size="16" x="704" y="104">132</text>
    <rect fill="#3260cd" height="22" width="360" x="117" y="120"/>
    <text fill="#fff" font-family="Arial" font-size="16" x="456" y="135">77</text>
    <rect fill="#3260cd" height="22" width="215" x="117" y="153"/>
    <text fill="#fff" font-family="Arial" font-size="16" x="311" y="170">46</text>
    <rect fill="#3260cd" height="22" width="444" x="117" y="186"/>
    <text fill="#fff" font-family="Arial" font-size="16" x="540" y="203">95</text>
    <rect fill="#3260cd" height="22" width="9" x="117" y="219"/>
    <rect fill="#999" height="1" width="12" x="126" y="230"/>
    <text fill="#000" font-family="Arial" font-size="16" x="140" y="234">2</text>
    <rect fill="#3260cd" height="22" width="32" x="117" y="252"/>
    <text fill="#fff" font-family="Arial" font-size="16" x="137" y="267">7</text>
    <rect fill="#3260cd" height="22" width="32" x="117" y="285"/>
    <text fill="#fff" font-family="Arial" font-size="16" x="137" y="300">7</text>
    <rect fill="#333" height="308" width="1" x="117" y="10"/>
    <text font-family="Arial" font-size="16" font-style="italic" x="417" y="354">Tests passed</text>
</svg>
