<?xml version="1.0" encoding="UTF-8" standalone="yes"?>
<!-- Generated by https://github.com/RazrFalcon/barh -->
<svg height="260" shape-rendering="crispEdges" width="839" xmlns="http://www.w3.org/2000/svg">
    <text font-family="Arial" font-size="16" x="59" y="38">resvg 0.2.0</text>
    <text font-family="Arial" font-size="16" x="4" y="71">Chromium r549031</text>
    <text font-family="Arial" font-size="16" x="76" y="104">Batik 1.9</text>
    <text font-family="Arial" font-size="16" x="25" y="137">Inkscape 0.92.2</text>
    <text font-family="Arial" font-size="16" x="34" y="170">librsvg 2.40.18</text>
    <text font-family="Arial" font-size="16" x="54" y="203">QtSvg 5.9.4</text>
    <rect fill="#ccc" height="209" width="1" x="142" y="10"/>
    <text fill="#000" font-family="Arial" font-size="16" x="138" y="233">0</text>
    <rect fill="#ccc" height="209" width="1" x="312" y="10"/>
    <text fill="#000" font-family="Arial" font-size="16" x="299" y="233">135</text>
    <rect fill="#ccc" height="209" width="1" x="483" y="10"/>
    <text fill="#000" font-family="Arial" font-size="16" x="470" y="233">269</text>
    <rect fill="#ccc" height="209" width="1" x="654" y="10"/>
    <text fill="#000" font-family="Arial" font-size="16" x="641" y="233">404</text>
    <rect fill="#ccc" height="209" width="1" x="825" y="10"/>
    <text fill="#000" font-family="Arial" font-size="16" x="812" y="233">538</text>
    <rect fill="#3260cd" height="22" width="622" x="142" y="21"/>
    <text fill="#fff" font-family="Arial" font-size="16" x="734" y="38">490</text>
    <rect fill="#3260cd" height="22" width="656" x="142" y="54"/>
    <text fill="#fff" font-family="Arial" font-size="16" x="768" y="71">517</text>
    <rect fill="#3260cd" height="22" width="531" x="142" y="87"/>
    <text fill="#fff" font-family="Arial" font-size="16" x="643" y="104">419</text>
    <rect fill="#3260cd" height="22" width="581" x="142" y="120"/>
    <text fill="#fff" font-family="Arial" font-size="16" x="693" y="137">458</text>
    <rect fill="#3260cd" height="22" width="506" x="142" y="153"/>
    <text fill="#fff" font-family="Arial" font-size="16" x="618" y="170">399</text>
    <rect fill="#3260cd" height="22" width="391" x="142" y="186"/>
    <text fill="#fff" font-family="Arial" font-size="16" x="503" y="203">308</text>
    <rect fill="#333" height="209" width="1" x="142" y="10"/>
    <text font-family="Arial" font-size="16" font-style="italic" x="442" y="255">Tests passed</text>
</svg>
