<?xml version="1.0" encoding="UTF-8" standalone="yes"?>
<!-- Generated by https://github.com/RazrFalcon/barh -->
<svg height="359" shape-rendering="crispEdges" width="841" xmlns="http://www.w3.org/2000/svg">
    <text font-family="Arial" font-size="16" x="52" y="38">resvg 0.15.0</text>
    <text font-family="Arial" font-size="16" x="4" y="71">Chromium r883894</text>
    <text font-family="Arial" font-size="16" x="69" y="104">Firefox 89</text>
    <text font-family="Arial" font-size="16" x="52" y="137">Inkscape 1.1</text>
    <text font-family="Arial" font-size="16" x="45" y="170">librsvg 2.50.7</text>
    <text font-family="Arial" font-size="16" x="70" y="203">Batik 1.14</text>
    <text font-family="Arial" font-size="16" x="31" y="236">SVG.NET 3.2.3</text>
    <text font-family="Arial" font-size="16" x="59" y="269">QtSvg 6.1.1</text>
    <text font-family="Arial" font-size="16" x="48" y="302">wxSvg 1.5.11</text>
    <rect fill="#ccc" height="308" width="1" x="144" y="10"/>
    <text fill="#000" font-family="Arial" font-size="16" x="140" y="332">0</text>
    <rect fill="#ccc" height="308" width="1" x="313" y="10"/>
    <text fill="#000" font-family="Arial" font-size="16" x="300" y="332">339</text>
    <rect fill="#ccc" height="308" width="1" x="483" y="10"/>
    <text fill="#000" font-family="Arial" font-size="16" x="470" y="332">677</text>
    <rect fill="#ccc" height="308" width="1" x="653" y="10"/>
    <text fill="#000" font-family="Arial" font-size="16" x="636" y="332">1016</text>
    <rect fill="#ccc" height="308" width="1" x="823" y="10"/>
    <text fill="#000" font-family="Arial" font-size="16" x="806" y="332">1354</text>
    <rect fill="#3260cd" height="22" width="649" x="144" y="21"/>
    <text fill="#fff" font-family="Arial" font-size="16" x="754" y="38">1295</text>
    <rect fill="#3260cd" height="22" width="606" x="144" y="54"/>
    <text fill="#fff" font-family="Arial" font-size="16" x="711" y="71">1209</text>
    <rect fill="#3260cd" height="22" width="592" x="144" y="87"/>
    <text fill="#fff" font-family="Arial" font-size="16" x="698" y="104">1182</text>
    <rect fill="#3260cd" height="22" width="466" x="144" y="120"/>
    <text fill="#fff" font-family="Arial" font-size="16" x="580" y="137">930</text>
    <rect fill="#3260cd" height="22" width="501" x="144" y="153"/>
    <text fill="#fff" font-family="Arial" font-size="16" x="608" y="170">1001</text>
    <rect fill="#3260cd" height="22" width="479" x="144" y="186"/>
    <text fill="#fff" font-family="Arial" font-size="16" x="593" y="203">956</text>
    <rect fill="#3260cd" height="22" width="315" x="144" y="219"/>
    <text fill="#fff" font-family="Arial" font-size="16" x="429" y="236">630</text>
    <rect fill="#3260cd" height="22" width="218" x="144" y="252"/>
    <text fill="#fff" font-family="Arial" font-size="16" x="332" y="269">435</text>
    <rect fill="#3260cd" height="22" width="174" x="144" y="285"/>
    <text fill="#fff" font-family="Arial" font-size="16" x="288" y="302">347</text>
    <rect fill="#333" height="308" width="1" x="144" y="10"/>
    <text font-family="Arial" font-size="16" font-style="italic" x="444" y="354">Tests passed</text>
</svg>
