<?xml version="1.0" encoding="UTF-8" standalone="yes"?>
<!-- Generated by https://github.com/RazrFalcon/barh -->
<svg height="392" shape-rendering="crispEdges" width="841" xmlns="http://www.w3.org/2000/svg">
    <text font-family="Arial" font-size="16" x="52" y="38">resvg 0.16.0</text>
    <text font-family="Arial" font-size="16" x="4" y="71">Chromium r901419</text>
    <text font-family="Arial" font-size="16" x="71" y="104">Firefox 91</text>
    <text font-family="Arial" font-size="16" x="52" y="137">Safari 14.1.1</text>
    <text font-family="Arial" font-size="16" x="52" y="170">Inkscape 1.1</text>
    <text font-family="Arial" font-size="16" x="45" y="201">librsvg 2.50.7</text>
    <text font-family="Arial" font-size="16" x="70" y="234">Batik 1.14</text>
    <text font-family="Arial" font-size="16" x="31" y="269">SVG.NET 3.2.3</text>
    <text font-family="Arial" font-size="16" x="56" y="300">QtSvg 6.1.2</text>
    <text font-family="Arial" font-size="16" x="48" y="333">wxSvg 1.5.11</text>
    <rect fill="#ccc" height="341" width="1" x="144" y="10"/>
    <text fill="#000" font-family="Arial" font-size="16" x="140" y="365">0</text>
    <rect fill="#ccc" height="341" width="1" x="316" y="10"/>
    <text fill="#000" font-family="Arial" font-size="16" x="308" y="365">25</text>
    <rect fill="#ccc" height="341" width="1" x="488" y="10"/>
    <text fill="#000" font-family="Arial" font-size="16" x="480" y="365">50</text>
    <rect fill="#ccc" height="341" width="1" x="660" y="10"/>
    <text fill="#000" font-family="Arial" font-size="16" x="652" y="365">74</text>
    <rect fill="#ccc" height="341" width="1" x="832" y="10"/>
    <text fill="#000" font-family="Arial" font-size="16" x="824" y="365">99</text>
    <rect fill="#3260cd" height="22" width="215" x="144" y="21"/>
    <text fill="#fff" font-family="Arial" font-size="16" x="340" y="38">31</text>
    <rect fill="#3260cd" height="22" width="604" x="144" y="54"/>
    <text fill="#fff" font-family="Arial" font-size="16" x="727" y="71">87</text>
    <rect fill="#3260cd" height="22" width="576" x="144" y="87"/>
    <text fill="#fff" font-family="Arial" font-size="16" x="699" y="104">83</text>
    <rect fill="#3260cd" height="22" width="361" x="144" y="120"/>
    <text fill="#fff" font-family="Arial" font-size="16" x="484" y="137">52</text>
    <rect fill="#3260cd" height="22" width="229" x="144" y="153"/>
    <text fill="#fff" font-family="Arial" font-size="16" x="352" y="170">33</text>
    <rect fill="#3260cd" height="22" width="305" x="144" y="186"/>
    <text fill="#fff" font-family="Arial" font-size="16" x="428" y="201">44</text>
    <rect fill="#3260cd" height="22" width="13" x="144" y="219"/>
    <rect fill="#999" height="1" width="12" x="157" y="230"/>
    <text fill="#000" font-family="Arial" font-size="16" x="171" y="234">2</text>
    <rect fill="#3260cd" height="22" width="41" x="144" y="252"/>
    <text fill="#fff" font-family="Arial" font-size="16" x="173" y="269">6</text>
    <rect fill="#3260cd" height="22" width="48" x="144" y="285"/>
    <text fill="#fff" font-family="Arial" font-size="16" x="180" y="300">7</text>
    <rect fill="#3260cd" height="22" width="48" x="144" y="318"/>
    <text fill="#fff" font-family="Arial" font-size="16" x="180" y="333">7</text>
    <rect fill="#333" height="341" width="1" x="144" y="10"/>
    <text font-family="Arial" font-size="16" font-style="italic" x="444" y="387">Tests passed</text>
</svg>
