<?xml version="1.0" encoding="UTF-8" standalone="yes"?>
<!-- Generated by https://github.com/RazrFalcon/barh -->
<svg height="359" shape-rendering="crispEdges" width="814" xmlns="http://www.w3.org/2000/svg">
    <rect width="814" height="359" fill="white"/>
    <text font-family="Arial" font-size="16" x="25" y="38">resvg 0.22.0</text>
    <text font-family="Arial" font-size="16" x="34" y="69">Chrome 93</text>
    <text font-family="Arial" font-size="16" x="42" y="104">Firefox 97</text>
    <text font-family="Arial" font-size="16" x="36" y="137">Safari 15.3</text>
    <text font-family="Arial" font-size="16" x="25" y="170">Inkscape 1.1</text>
    <text font-family="Arial" font-size="16" x="32" y="201">librsvg 2.53</text>
    <text font-family="Arial" font-size="16" x="43" y="234">Batik 1.14</text>
    <text font-family="Arial" font-size="16" x="4" y="269">SVG.NET 3.2.3</text>
    <text font-family="Arial" font-size="16" x="29" y="300">QtSvg 6.2.2</text>
    <rect fill="#ccc" height="308" width="1" x="117" y="10"/>
    <text fill="#000" font-family="Arial" font-size="16" x="113" y="332">0</text>
    <rect fill="#ccc" height="308" width="1" x="287" y="10"/>
    <text fill="#000" font-family="Arial" font-size="16" x="280" y="332">31</text>
    <rect fill="#ccc" height="308" width="1" x="458" y="10"/>
    <text fill="#000" font-family="Arial" font-size="16" x="450" y="332">63</text>
    <rect fill="#ccc" height="308" width="1" x="629" y="10"/>
    <text fill="#000" font-family="Arial" font-size="16" x="621" y="332">94</text>
    <rect fill="#ccc" height="308" width="1" x="800" y="10"/>
    <text fill="#000" font-family="Arial" font-size="16" x="787" y="332">125</text>
    <rect fill="#3260cd" height="22" width="442" x="117" y="21"/>
    <text fill="#fff" font-family="Arial" font-size="16" x="540" y="38">81</text>
    <rect fill="#3260cd" height="22" width="622" x="117" y="54"/>
    <text fill="#fff" font-family="Arial" font-size="16" x="710" y="69">114</text>
    <rect fill="#3260cd" height="22" width="595" x="117" y="87"/>
    <text fill="#fff" font-family="Arial" font-size="16" x="682" y="104">109</text>
    <rect fill="#3260cd" height="22" width="316" x="117" y="120"/>
    <text fill="#fff" font-family="Arial" font-size="16" x="412" y="137">58</text>
    <rect fill="#3260cd" height="22" width="191" x="117" y="153"/>
    <text fill="#fff" font-family="Arial" font-size="16" x="287" y="170">35</text>
    <rect fill="#3260cd" height="22" width="393" x="117" y="186"/>
    <text fill="#fff" font-family="Arial" font-size="16" x="489" y="201">72</text>
    <rect fill="#3260cd" height="22" width="10" x="117" y="219"/>
    <rect fill="#999" height="1" width="12" x="127" y="230"/>
    <text fill="#000" font-family="Arial" font-size="16" x="141" y="234">2</text>
    <rect fill="#3260cd" height="22" width="32" x="117" y="252"/>
    <text fill="#fff" font-family="Arial" font-size="16" x="137" y="269">6</text>
    <rect fill="#3260cd" height="22" width="38" x="117" y="285"/>
    <text fill="#fff" font-family="Arial" font-size="16" x="143" y="300">7</text>
    <rect fill="#333" height="308" width="1" x="117" y="10"/>
    <text font-family="Arial" font-size="16" font-style="italic" x="417" y="354">Tests passed</text>
</svg>
