<?xml version="1.0" encoding="UTF-8" standalone="yes"?>
<!-- Generated by https://github.com/RazrFalcon/barh -->
<svg height="359" shape-rendering="crispEdges" width="814" xmlns="http://www.w3.org/2000/svg">
    <rect width="814" height="359" fill="white"/>
    <text font-family="Arial" font-size="16" x="25" y="38">resvg 0.22.0</text>
    <text font-family="Arial" font-size="16" x="34" y="71">Chrome 93</text>
    <text font-family="Arial" font-size="16" x="42" y="102">Firefox 97</text>
    <text font-family="Arial" font-size="16" x="36" y="137">Safari 15.3</text>
    <text font-family="Arial" font-size="16" x="25" y="170">Inkscape 1.1</text>
    <text font-family="Arial" font-size="16" x="32" y="203">librsvg 2.53</text>
    <text font-family="Arial" font-size="16" x="43" y="236">Batik 1.14</text>
    <text font-family="Arial" font-size="16" x="4" y="269">SVG.NET 3.2.3</text>
    <text font-family="Arial" font-size="16" x="29" y="302">QtSvg 6.2.2</text>
    <rect fill="#ccc" height="308" width="1" x="117" y="10"/>
    <text fill="#000" font-family="Arial" font-size="16" x="113" y="332">0</text>
    <rect fill="#ccc" height="308" width="1" x="286" y="10"/>
    <text fill="#000" font-family="Arial" font-size="16" x="273" y="332">364</text>
    <rect fill="#ccc" height="308" width="1" x="456" y="10"/>
    <text fill="#000" font-family="Arial" font-size="16" x="443" y="332">729</text>
    <rect fill="#ccc" height="308" width="1" x="626" y="10"/>
    <text fill="#000" font-family="Arial" font-size="16" x="609" y="332">1093</text>
    <rect fill="#ccc" height="308" width="1" x="796" y="10"/>
    <text fill="#000" font-family="Arial" font-size="16" x="779" y="332">1457</text>
    <rect fill="#3260cd" height="22" width="625" x="117" y="21"/>
    <text fill="#fff" font-family="Arial" font-size="16" x="703" y="38">1342</text>
    <rect fill="#3260cd" height="22" width="607" x="117" y="54"/>
    <text fill="#fff" font-family="Arial" font-size="16" x="685" y="71">1304</text>
    <rect fill="#3260cd" height="22" width="592" x="117" y="87"/>
    <text fill="#fff" font-family="Arial" font-size="16" x="670" y="102">1272</text>
    <rect fill="#3260cd" height="22" width="561" x="117" y="120"/>
    <text fill="#fff" font-family="Arial" font-size="16" x="639" y="137">1204</text>
    <rect fill="#3260cd" height="22" width="435" x="117" y="153"/>
    <text fill="#fff" font-family="Arial" font-size="16" x="522" y="170">934</text>
    <rect fill="#3260cd" height="22" width="496" x="117" y="186"/>
    <text fill="#fff" font-family="Arial" font-size="16" x="574" y="203">1066</text>
    <rect fill="#3260cd" height="22" width="440" x="117" y="219"/>
    <text fill="#fff" font-family="Arial" font-size="16" x="527" y="236">945</text>
    <rect fill="#3260cd" height="22" width="266" x="117" y="252"/>
    <text fill="#fff" font-family="Arial" font-size="16" x="353" y="269">572</text>
    <rect fill="#3260cd" height="22" width="187" x="117" y="285"/>
    <text fill="#fff" font-family="Arial" font-size="16" x="274" y="302">402</text>
    <rect fill="#333" height="308" width="1" x="117" y="10"/>
    <text font-family="Arial" font-size="16" font-style="italic" x="417" y="354">Tests passed</text>
</svg>
