<?xml version="1.0" encoding="UTF-8" standalone="yes"?>
<!-- Generated by https://github.com/RazrFalcon/barh -->
<svg height="359" shape-rendering="crispEdges" width="841" xmlns="http://www.w3.org/2000/svg">
    <text font-family="Arial" font-size="16" x="52" y="36">resvg 0.12.0</text>
    <text font-family="Arial" font-size="16" x="4" y="71">Chromium r818858</text>
    <text font-family="Arial" font-size="16" x="69" y="104">Firefox 83</text>
    <text font-family="Arial" font-size="16" x="50" y="137">Inkscape 1.0</text>
    <text font-family="Arial" font-size="16" x="45" y="170">librsvg 2.50.2</text>
    <text font-family="Arial" font-size="16" x="69" y="203">Batik 1.13</text>
    <text font-family="Arial" font-size="16" x="13" y="236">SVG.NET 3.0.102</text>
    <text font-family="Arial" font-size="16" x="50" y="269">QtSvg 5.15.1</text>
    <text font-family="Arial" font-size="16" x="48" y="302">wxSvg 1.5.11</text>
    <rect fill="#ccc" height="308" width="1" x="144" y="10"/>
    <text fill="#000" font-family="Arial" font-size="16" x="140" y="332">0</text>
    <rect fill="#ccc" height="308" width="1" x="313" y="10"/>
    <text fill="#000" font-family="Arial" font-size="16" x="300" y="332">333</text>
    <rect fill="#ccc" height="308" width="1" x="483" y="10"/>
    <text fill="#000" font-family="Arial" font-size="16" x="470" y="332">667</text>
    <rect fill="#ccc" height="308" width="1" x="653" y="10"/>
    <text fill="#000" font-family="Arial" font-size="16" x="636" y="332">1000</text>
    <rect fill="#ccc" height="308" width="1" x="823" y="10"/>
    <text fill="#000" font-family="Arial" font-size="16" x="806" y="332">1333</text>
    <rect fill="#3260cd" height="22" width="648" x="144" y="21"/>
    <text fill="#fff" font-family="Arial" font-size="16" x="753" y="36">1274</text>
    <rect fill="#3260cd" height="22" width="601" x="144" y="54"/>
    <text fill="#fff" font-family="Arial" font-size="16" x="709" y="71">1181</text>
    <rect fill="#3260cd" height="22" width="592" x="144" y="87"/>
    <text fill="#fff" font-family="Arial" font-size="16" x="698" y="104">1163</text>
    <rect fill="#3260cd" height="22" width="495" x="144" y="120"/>
    <text fill="#fff" font-family="Arial" font-size="16" x="609" y="137">972</text>
    <rect fill="#3260cd" height="22" width="511" x="144" y="153"/>
    <text fill="#fff" font-family="Arial" font-size="16" x="616" y="170">1005</text>
    <rect fill="#3260cd" height="22" width="477" x="144" y="186"/>
    <text fill="#fff" font-family="Arial" font-size="16" x="591" y="203">937</text>
    <rect fill="#3260cd" height="22" width="305" x="144" y="219"/>
    <text fill="#fff" font-family="Arial" font-size="16" x="419" y="236">600</text>
    <rect fill="#3260cd" height="22" width="232" x="144" y="252"/>
    <text fill="#fff" font-family="Arial" font-size="16" x="346" y="269">456</text>
    <rect fill="#3260cd" height="22" width="172" x="144" y="285"/>
    <text fill="#fff" font-family="Arial" font-size="16" x="286" y="302">338</text>
    <rect fill="#333" height="308" width="1" x="144" y="10"/>
    <text font-family="Arial" font-size="16" font-style="italic" x="444" y="354">Tests passed</text>
</svg>
