<?xml version="1.0" encoding="UTF-8" standalone="yes"?>
<!-- Generated by https://github.com/RazrFalcon/barh -->
<svg height="293" shape-rendering="crispEdges" width="841" xmlns="http://www.w3.org/2000/svg">
    <text font-family="Arial" font-size="16" x="61" y="38">resvg 0.4.0</text>
    <text font-family="Arial" font-size="16" x="56" y="71">Firefox 64.0</text>
    <text font-family="Arial" font-size="16" x="4" y="104">Chromium r609904</text>
    <text font-family="Arial" font-size="16" x="27" y="137">Inkscape 0.92.2</text>
    <text font-family="Arial" font-size="16" x="48" y="170">librsvg 2.45.1</text>
    <text font-family="Arial" font-size="16" x="78" y="203">Batik 1.9</text>
    <text font-family="Arial" font-size="16" x="51" y="236">QtSvg 5.11.1</text>
    <rect fill="#ccc" height="242" width="1" x="144" y="10"/>
    <text fill="#000" font-family="Arial" font-size="16" x="140" y="266">0</text>
    <rect fill="#ccc" height="242" width="1" x="314" y="10"/>
    <text fill="#000" font-family="Arial" font-size="16" x="301" y="266">204</text>
    <rect fill="#ccc" height="242" width="1" x="485" y="10"/>
    <text fill="#000" font-family="Arial" font-size="16" x="472" y="266">408</text>
    <rect fill="#ccc" height="242" width="1" x="656" y="10"/>
    <text fill="#000" font-family="Arial" font-size="16" x="645" y="266">611</text>
    <rect fill="#ccc" height="242" width="1" x="827" y="10"/>
    <text fill="#000" font-family="Arial" font-size="16" x="814" y="266">815</text>
    <rect fill="#3260cd" height="22" width="651" x="144" y="21"/>
    <text fill="#fff" font-family="Arial" font-size="16" x="765" y="38">778</text>
    <rect fill="#3260cd" height="22" width="633" x="144" y="54"/>
    <text fill="#fff" font-family="Arial" font-size="16" x="747" y="71">756</text>
    <rect fill="#3260cd" height="22" width="622" x="144" y="87"/>
    <text fill="#fff" font-family="Arial" font-size="16" x="736" y="104">743</text>
    <rect fill="#3260cd" height="22" width="542" x="144" y="120"/>
    <text fill="#fff" font-family="Arial" font-size="16" x="656" y="137">647</text>
    <rect fill="#3260cd" height="22" width="534" x="144" y="153"/>
    <text fill="#fff" font-family="Arial" font-size="16" x="648" y="170">638</text>
    <rect fill="#3260cd" height="22" width="506" x="144" y="186"/>
    <text fill="#fff" font-family="Arial" font-size="16" x="620" y="203">604</text>
    <rect fill="#3260cd" height="22" width="306" x="144" y="219"/>
    <text fill="#fff" font-family="Arial" font-size="16" x="420" y="236">366</text>
    <rect fill="#333" height="242" width="1" x="144" y="10"/>
    <text font-family="Arial" font-size="16" font-style="italic" x="444" y="288">Tests passed</text>
</svg>
