<?xml version="1.0" encoding="UTF-8" standalone="yes"?>
<!-- Generated by https://github.com/RazrFalcon/barh -->
<svg height="392" shape-rendering="crispEdges" width="841" xmlns="http://www.w3.org/2000/svg">
    <rect width="841" height="392" fill="white"/>
    <text font-family="Arial" font-size="16" x="52" y="38">resvg 0.19.0</text>
    <text font-family="Arial" font-size="16" x="4" y="71">Chromium r901419</text>
    <text font-family="Arial" font-size="16" x="71" y="104">Firefox 91</text>
    <text font-family="Arial" font-size="16" x="52" y="137">Safari 14.1.1</text>
    <text font-family="Arial" font-size="16" x="52" y="170">Inkscape 1.1</text>
    <text font-family="Arial" font-size="16" x="45" y="203">librsvg 2.50.7</text>
    <text font-family="Arial" font-size="16" x="70" y="236">Batik 1.14</text>
    <text font-family="Arial" font-size="16" x="31" y="269">SVG.NET 3.2.3</text>
    <text font-family="Arial" font-size="16" x="56" y="302">QtSvg 6.1.2</text>
    <text font-family="Arial" font-size="16" x="48" y="335">wxSvg 1.5.11</text>
    <rect fill="#ccc" height="341" width="1" x="144" y="10"/>
    <text fill="#000" font-family="Arial" font-size="16" x="140" y="365">0</text>
    <rect fill="#ccc" height="341" width="1" x="313" y="10"/>
    <text fill="#000" font-family="Arial" font-size="16" x="301" y="365">361</text>
    <rect fill="#ccc" height="341" width="1" x="483" y="10"/>
    <text fill="#000" font-family="Arial" font-size="16" x="470" y="365">722</text>
    <rect fill="#ccc" height="341" width="1" x="653" y="10"/>
    <text fill="#000" font-family="Arial" font-size="16" x="636" y="365">1082</text>
    <rect fill="#ccc" height="341" width="1" x="823" y="10"/>
    <text fill="#000" font-family="Arial" font-size="16" x="806" y="365">1443</text>
    <rect fill="#3260cd" height="22" width="624" x="144" y="21"/>
    <text fill="#fff" font-family="Arial" font-size="16" x="729" y="38">1327</text>
    <rect fill="#3260cd" height="22" width="607" x="144" y="54"/>
    <text fill="#fff" font-family="Arial" font-size="16" x="714" y="71">1291</text>
    <rect fill="#3260cd" height="22" width="591" x="144" y="87"/>
    <text fill="#fff" font-family="Arial" font-size="16" x="696" y="104">1258</text>
    <rect fill="#3260cd" height="22" width="565" x="144" y="120"/>
    <text fill="#fff" font-family="Arial" font-size="16" x="672" y="137">1201</text>
    <rect fill="#3260cd" height="22" width="436" x="144" y="153"/>
    <text fill="#fff" font-family="Arial" font-size="16" x="550" y="170">927</text>
    <rect fill="#3260cd" height="22" width="470" x="144" y="186"/>
    <text fill="#fff" font-family="Arial" font-size="16" x="575" y="203">1000</text>
    <rect fill="#3260cd" height="22" width="439" x="144" y="219"/>
    <text fill="#fff" font-family="Arial" font-size="16" x="553" y="236">934</text>
    <rect fill="#3260cd" height="22" width="269" x="144" y="252"/>
    <text fill="#fff" font-family="Arial" font-size="16" x="383" y="269">572</text>
    <rect fill="#3260cd" height="22" width="183" x="144" y="285"/>
    <text fill="#fff" font-family="Arial" font-size="16" x="299" y="302">391</text>
    <rect fill="#3260cd" height="22" width="138" x="144" y="318"/>
    <text fill="#fff" font-family="Arial" font-size="16" x="252" y="335">295</text>
    <rect fill="#333" height="341" width="1" x="144" y="10"/>
    <text font-family="Arial" font-size="16" font-style="italic" x="444" y="387">Tests passed</text>
</svg>
