<?xml version="1.0" encoding="UTF-8" standalone="yes"?>
<!-- Generated by https://github.com/RazrFalcon/barh -->
<svg height="392" shape-rendering="crispEdges" width="841" xmlns="http://www.w3.org/2000/svg">
    <text font-family="Arial" font-size="16" x="52" y="38">resvg 0.16.0</text>
    <text font-family="Arial" font-size="16" x="4" y="71">Chromium r901419</text>
    <text font-family="Arial" font-size="16" x="71" y="104">Firefox 91</text>
    <text font-family="Arial" font-size="16" x="52" y="137">Safari 14.1.1</text>
    <text font-family="Arial" font-size="16" x="52" y="170">Inkscape 1.1</text>
    <text font-family="Arial" font-size="16" x="45" y="203">librsvg 2.50.7</text>
    <text font-family="Arial" font-size="16" x="70" y="236">Batik 1.14</text>
    <text font-family="Arial" font-size="16" x="31" y="269">SVG.NET 3.2.3</text>
    <text font-family="Arial" font-size="16" x="56" y="302">QtSvg 6.1.2</text>
    <text font-family="Arial" font-size="16" x="48" y="335">wxSvg 1.5.11</text>
    <rect fill="#ccc" height="341" width="1" x="144" y="10"/>
    <text fill="#000" font-family="Arial" font-size="16" x="140" y="365">0</text>
    <rect fill="#ccc" height="341" width="1" x="313" y="10"/>
    <text fill="#000" font-family="Arial" font-size="16" x="300" y="365">354</text>
    <rect fill="#ccc" height="341" width="1" x="483" y="10"/>
    <text fill="#000" font-family="Arial" font-size="16" x="470" y="365">708</text>
    <rect fill="#ccc" height="341" width="1" x="653" y="10"/>
    <text fill="#000" font-family="Arial" font-size="16" x="637" y="365">1061</text>
    <rect fill="#ccc" height="341" width="1" x="823" y="10"/>
    <text fill="#000" font-family="Arial" font-size="16" x="806" y="365">1415</text>
    <rect fill="#3260cd" height="22" width="611" x="144" y="21"/>
    <text fill="#fff" font-family="Arial" font-size="16" x="716" y="38">1275</text>
    <rect fill="#3260cd" height="22" width="605" x="144" y="54"/>
    <text fill="#fff" font-family="Arial" font-size="16" x="710" y="71">1262</text>
    <rect fill="#3260cd" height="22" width="590" x="144" y="87"/>
    <text fill="#fff" font-family="Arial" font-size="16" x="695" y="104">1230</text>
    <rect fill="#3260cd" height="22" width="572" x="144" y="120"/>
    <text fill="#fff" font-family="Arial" font-size="16" x="678" y="137">1194</text>
    <rect fill="#3260cd" height="22" width="443" x="144" y="153"/>
    <text fill="#fff" font-family="Arial" font-size="16" x="557" y="170">924</text>
    <rect fill="#3260cd" height="22" width="476" x="144" y="186"/>
    <text fill="#fff" font-family="Arial" font-size="16" x="590" y="203">994</text>
    <rect fill="#3260cd" height="22" width="447" x="144" y="219"/>
    <text fill="#fff" font-family="Arial" font-size="16" x="561" y="236">933</text>
    <rect fill="#3260cd" height="22" width="274" x="144" y="252"/>
    <text fill="#fff" font-family="Arial" font-size="16" x="388" y="269">572</text>
    <rect fill="#3260cd" height="22" width="187" x="144" y="285"/>
    <text fill="#fff" font-family="Arial" font-size="16" x="303" y="302">391</text>
    <rect fill="#3260cd" height="22" width="141" x="144" y="318"/>
    <text fill="#fff" font-family="Arial" font-size="16" x="255" y="335">295</text>
    <rect fill="#333" height="341" width="1" x="144" y="10"/>
    <text font-family="Arial" font-size="16" font-style="italic" x="444" y="387">Tests passed</text>
</svg>
