<?xml version="1.0" encoding="UTF-8" standalone="yes"?>
<!-- Generated by https://github.com/RazrFalcon/barh -->
<svg height="359" shape-rendering="crispEdges" width="814" xmlns="http://www.w3.org/2000/svg">
    <text font-family="Arial" font-size="16" x="25" y="38">resvg 0.40.0</text>
    <text font-family="Arial" font-size="16" x="25" y="69">Chrome 123</text>
    <text font-family="Arial" font-size="16" x="34" y="104">Firefox 124</text>
    <text font-family="Arial" font-size="16" x="25" y="137">Safari 17.3.1</text>
    <text font-family="Arial" font-size="16" x="18" y="170">librsvg 2.58.0</text>
    <text font-family="Arial" font-size="16" x="9" y="203">Inkscape 1.3.2</text>
    <text font-family="Arial" font-size="16" x="42" y="236">Batik 1.17</text>
    <text font-family="Arial" font-size="16" x="4" y="269">SVG.NET 3.2.3</text>
    <text font-family="Arial" font-size="16" x="29" y="302">QtSvg 6.7.0</text>
    <rect fill="#ccc" height="308" width="1" x="117" y="10"/>
    <text fill="#000" font-family="Arial" font-size="16" x="113" y="332">0</text>
    <rect fill="#ccc" height="308" width="1" x="286" y="10"/>
    <text fill="#000" font-family="Arial" font-size="16" x="273" y="332">404</text>
    <rect fill="#ccc" height="308" width="1" x="456" y="10"/>
    <text fill="#000" font-family="Arial" font-size="16" x="443" y="332">807</text>
    <rect fill="#ccc" height="308" width="1" x="626" y="10"/>
    <text fill="#000" font-family="Arial" font-size="16" x="610" y="332">1211</text>
    <rect fill="#ccc" height="308" width="1" x="796" y="10"/>
    <text fill="#000" font-family="Arial" font-size="16" x="779" y="332">1614</text>
    <rect fill="#3260cd" height="22" width="638" x="117" y="21"/>
    <text fill="#fff" font-family="Arial" font-size="16" x="716" y="38">1518</text>
    <rect fill="#3260cd" height="22" width="597" x="117" y="54"/>
    <text fill="#fff" font-family="Arial" font-size="16" x="677" y="69">1421</text>
    <rect fill="#3260cd" height="22" width="581" x="117" y="87"/>
    <text fill="#fff" font-family="Arial" font-size="16" x="659" y="104">1383</text>
    <rect fill="#3260cd" height="22" width="563" x="117" y="120"/>
    <text fill="#fff" font-family="Arial" font-size="16" x="641" y="137">1339</text>
    <rect fill="#3260cd" height="22" width="491" x="117" y="153"/>
    <text fill="#fff" font-family="Arial" font-size="16" x="570" y="170">1168</text>
    <rect fill="#3260cd" height="22" width="413" x="117" y="186"/>
    <text fill="#fff" font-family="Arial" font-size="16" x="500" y="203">983</text>
    <rect fill="#3260cd" height="22" width="410" x="117" y="219"/>
    <text fill="#fff" font-family="Arial" font-size="16" x="497" y="236">976</text>
    <rect fill="#3260cd" height="22" width="222" x="117" y="252"/>
    <text fill="#fff" font-family="Arial" font-size="16" x="309" y="269">530</text>
    <rect fill="#3260cd" height="22" width="247" x="117" y="285"/>
    <text fill="#fff" font-family="Arial" font-size="16" x="334" y="302">589</text>
    <rect fill="#333" height="308" width="1" x="117" y="10"/>
    <text font-family="Arial" font-size="16" font-style="italic" x="417" y="354">Tests passed</text>
</svg>
