<?xml version="1.0" encoding="UTF-8" standalone="yes"?>
<!-- Generated by https://github.com/RazrFalcon/barh -->
<svg height="359" shape-rendering="crispEdges" width="814" xmlns="http://www.w3.org/2000/svg">
    <rect width="814" height="359" fill="white"/>
    <text font-family="Arial" font-size="16" x="25" y="38">resvg 0.40.0</text>
    <text font-family="Arial" font-size="16" x="25" y="71">Chrome 123</text>
    <text font-family="Arial" font-size="16" x="34" y="104">Firefox 124</text>
    <text font-family="Arial" font-size="16" x="25" y="137">Safari 17.3.1</text>
    <text font-family="Arial" font-size="16" x="18" y="170">librsvg 2.58.0</text>
    <text font-family="Arial" font-size="16" x="9" y="203">Inkscape 1.3.2</text>
    <text font-family="Arial" font-size="16" x="42" y="236">Batik 1.17</text>
    <text font-family="Arial" font-size="16" x="4" y="267">SVG.NET 3.2.3</text>
    <text font-family="Arial" font-size="16" x="29" y="302">QtSvg 6.7.0</text>
    <rect fill="#ccc" height="308" width="1" x="117" y="10"/>
    <text fill="#000" font-family="Arial" font-size="16" x="113" y="332">0</text>
    <rect fill="#ccc" height="308" width="1" x="287" y="10"/>
    <text fill="#000" font-family="Arial" font-size="16" x="279" y="332">50</text>
    <rect fill="#ccc" height="308" width="1" x="458" y="10"/>
    <text fill="#000" font-family="Arial" font-size="16" x="445" y="332">100</text>
    <rect fill="#ccc" height="308" width="1" x="629" y="10"/>
    <text fill="#000" font-family="Arial" font-size="16" x="616" y="332">149</text>
    <rect fill="#ccc" height="308" width="1" x="800" y="10"/>
    <text fill="#000" font-family="Arial" font-size="16" x="787" y="332">199</text>
    <rect fill="#3260cd" height="22" width="614" x="117" y="21"/>
    <text fill="#fff" font-family="Arial" font-size="16" x="701" y="38">179</text>
    <rect fill="#3260cd" height="22" width="566" x="117" y="54"/>
    <text fill="#fff" font-family="Arial" font-size="16" x="653" y="71">165</text>
    <rect fill="#3260cd" height="22" width="573" x="117" y="87"/>
    <text fill="#fff" font-family="Arial" font-size="16" x="660" y="104">167</text>
    <rect fill="#3260cd" height="22" width="356" x="117" y="120"/>
    <text fill="#fff" font-family="Arial" font-size="16" x="443" y="137">104</text>
    <rect fill="#3260cd" height="22" width="422" x="117" y="153"/>
    <text fill="#fff" font-family="Arial" font-size="16" x="509" y="170">123</text>
    <rect fill="#3260cd" height="22" width="188" x="117" y="186"/>
    <text fill="#fff" font-family="Arial" font-size="16" x="284" y="203">55</text>
    <rect fill="#3260cd" height="22" width="10" x="117" y="219"/>
    <rect fill="#999" height="1" width="12" x="127" y="230"/>
    <text fill="#000" font-family="Arial" font-size="16" x="141" y="236">3</text>
    <rect fill="#3260cd" height="22" width="24" x="117" y="252"/>
    <text fill="#fff" font-family="Arial" font-size="16" x="129" y="267">7</text>
    <rect fill="#3260cd" height="22" width="30" x="117" y="285"/>
    <text fill="#fff" font-family="Arial" font-size="16" x="135" y="302">9</text>
    <rect fill="#333" height="308" width="1" x="117" y="10"/>
    <text font-family="Arial" font-size="16" font-style="italic" x="417" y="354">Tests passed</text>
</svg>
