<?xml version="1.0" encoding="UTF-8" standalone="yes"?>
<!-- Generated by https://github.com/RazrFalcon/barh -->
<svg height="359" shape-rendering="crispEdges" width="841" xmlns="http://www.w3.org/2000/svg">
    <text font-family="Arial" font-size="16" x="54" y="38">resvg 0.14.1</text>
    <text font-family="Arial" font-size="16" x="4" y="71">Chromium r856583</text>
    <text font-family="Arial" font-size="16" x="69" y="104">Firefox 87</text>
    <text font-family="Arial" font-size="16" x="36" y="137">Inkscape 1.0.2</text>
    <text font-family="Arial" font-size="16" x="48" y="170">librsvg 2.51.1</text>
    <text font-family="Arial" font-size="16" x="70" y="203">Batik 1.14</text>
    <text font-family="Arial" font-size="16" x="31" y="236">SVG.NET 3.2.3</text>
    <text font-family="Arial" font-size="16" x="48" y="269">QtSvg 5.15.2</text>
    <text font-family="Arial" font-size="16" x="48" y="302">wxSvg 1.5.11</text>
    <rect fill="#ccc" height="308" width="1" x="144" y="10"/>
    <text fill="#000" font-family="Arial" font-size="16" x="140" y="332">0</text>
    <rect fill="#ccc" height="308" width="1" x="313" y="10"/>
    <text fill="#000" font-family="Arial" font-size="16" x="300" y="332">336</text>
    <rect fill="#ccc" height="308" width="1" x="483" y="10"/>
    <text fill="#000" font-family="Arial" font-size="16" x="470" y="332">672</text>
    <rect fill="#ccc" height="308" width="1" x="653" y="10"/>
    <text fill="#000" font-family="Arial" font-size="16" x="636" y="332">1008</text>
    <rect fill="#ccc" height="308" width="1" x="823" y="10"/>
    <text fill="#000" font-family="Arial" font-size="16" x="806" y="332">1344</text>
    <rect fill="#3260cd" height="22" width="648" x="144" y="21"/>
    <text fill="#fff" font-family="Arial" font-size="16" x="753" y="38">1284</text>
    <rect fill="#3260cd" height="22" width="605" x="144" y="54"/>
    <text fill="#fff" font-family="Arial" font-size="16" x="711" y="71">1198</text>
    <rect fill="#3260cd" height="22" width="592" x="144" y="87"/>
    <text fill="#fff" font-family="Arial" font-size="16" x="698" y="104">1173</text>
    <rect fill="#3260cd" height="22" width="494" x="144" y="120"/>
    <text fill="#fff" font-family="Arial" font-size="16" x="608" y="137">979</text>
    <rect fill="#3260cd" height="22" width="514" x="144" y="153"/>
    <text fill="#fff" font-family="Arial" font-size="16" x="619" y="170">1018</text>
    <rect fill="#3260cd" height="22" width="476" x="144" y="186"/>
    <text fill="#fff" font-family="Arial" font-size="16" x="590" y="203">944</text>
    <rect fill="#3260cd" height="22" width="315" x="144" y="219"/>
    <text fill="#fff" font-family="Arial" font-size="16" x="429" y="236">624</text>
    <rect fill="#3260cd" height="22" width="230" x="144" y="252"/>
    <text fill="#fff" font-family="Arial" font-size="16" x="344" y="269">457</text>
    <rect fill="#3260cd" height="22" width="172" x="144" y="285"/>
    <text fill="#fff" font-family="Arial" font-size="16" x="288" y="302">341</text>
    <rect fill="#333" height="308" width="1" x="144" y="10"/>
    <text font-family="Arial" font-size="16" font-style="italic" x="444" y="354">Tests passed</text>
</svg>
