<?xml version="1.0" encoding="UTF-8" standalone="yes"?>
<!-- Generated by https://github.com/RazrFalcon/barh -->
<svg height="359" shape-rendering="crispEdges" width="814" xmlns="http://www.w3.org/2000/svg">
    <rect width="814" height="359" fill="white"/>
    <text font-family="Arial" font-size="16" x="25" y="38">resvg 0.26.0</text>
    <text font-family="Arial" font-size="16" x="25" y="71">Chrome 105</text>
    <text font-family="Arial" font-size="16" x="34" y="104">Firefox 107</text>
    <text font-family="Arial" font-size="16" x="38" y="135">Safari 16.1</text>
    <text font-family="Arial" font-size="16" x="12" y="170">Inkscape 1.2.1</text>
    <text font-family="Arial" font-size="16" x="21" y="203">librsvg 2.55.1</text>
    <text font-family="Arial" font-size="16" x="42" y="236">Batik 1.16</text>
    <text font-family="Arial" font-size="16" x="4" y="269">SVG.NET 3.2.3</text>
    <text font-family="Arial" font-size="16" x="29" y="302">QtSvg 6.4.0</text>
    <rect fill="#ccc" height="308" width="1" x="117" y="10"/>
    <text fill="#000" font-family="Arial" font-size="16" x="113" y="332">0</text>
    <rect fill="#ccc" height="308" width="1" x="286" y="10"/>
    <text fill="#000" font-family="Arial" font-size="16" x="273" y="332">379</text>
    <rect fill="#ccc" height="308" width="1" x="456" y="10"/>
    <text fill="#000" font-family="Arial" font-size="16" x="443" y="332">757</text>
    <rect fill="#ccc" height="308" width="1" x="626" y="10"/>
    <text fill="#000" font-family="Arial" font-size="16" x="609" y="332">1136</text>
    <rect fill="#ccc" height="308" width="1" x="796" y="10"/>
    <text fill="#000" font-family="Arial" font-size="16" x="779" y="332">1514</text>
    <rect fill="#3260cd" height="22" width="636" x="117" y="21"/>
    <text fill="#fff" font-family="Arial" font-size="16" x="714" y="38">1420</text>
    <rect fill="#3260cd" height="22" width="609" x="117" y="54"/>
    <text fill="#fff" font-family="Arial" font-size="16" x="687" y="71">1359</text>
    <rect fill="#3260cd" height="22" width="588" x="117" y="87"/>
    <text fill="#fff" font-family="Arial" font-size="16" x="666" y="104">1312</text>
    <rect fill="#3260cd" height="22" width="570" x="117" y="120"/>
    <text fill="#fff" font-family="Arial" font-size="16" x="650" y="135">1271</text>
    <rect fill="#3260cd" height="22" width="429" x="117" y="153"/>
    <text fill="#fff" font-family="Arial" font-size="16" x="516" y="170">957</text>
    <rect fill="#3260cd" height="22" width="492" x="117" y="186"/>
    <text fill="#fff" font-family="Arial" font-size="16" x="570" y="203">1099</text>
    <rect fill="#3260cd" height="22" width="425" x="117" y="219"/>
    <text fill="#fff" font-family="Arial" font-size="16" x="512" y="236">949</text>
    <rect fill="#3260cd" height="22" width="256" x="117" y="252"/>
    <text fill="#fff" font-family="Arial" font-size="16" x="343" y="269">572</text>
    <rect fill="#3260cd" height="22" width="180" x="117" y="285"/>
    <text fill="#fff" font-family="Arial" font-size="16" x="267" y="302">403</text>
    <rect fill="#333" height="308" width="1" x="117" y="10"/>
    <text font-family="Arial" font-size="16" font-style="italic" x="417" y="354">Tests passed</text>
</svg>
