<?xml version="1.0" encoding="UTF-8" standalone="yes"?>
<!-- Generated by https://github.com/RazrFalcon/barh -->
<svg height="392" shape-rendering="crispEdges" width="841" xmlns="http://www.w3.org/2000/svg">
    <rect width="841" height="392" fill="white"/>
    <text font-family="Arial" font-size="16" x="52" y="38">resvg 0.15.0</text>
    <text font-family="Arial" font-size="16" x="4" y="71">Chromium r883894</text>
    <text font-family="Arial" font-size="16" x="69" y="104">Firefox 89</text>
    <text font-family="Arial" font-size="16" x="52" y="137">Safari 14.1.1</text>
    <text font-family="Arial" font-size="16" x="52" y="170">Inkscape 1.1</text>
    <text font-family="Arial" font-size="16" x="45" y="203">librsvg 2.50.7</text>
    <text font-family="Arial" font-size="16" x="70" y="236">Batik 1.14</text>
    <text font-family="Arial" font-size="16" x="31" y="269">SVG.NET 3.2.3</text>
    <text font-family="Arial" font-size="16" x="59" y="302">QtSvg 6.1.1</text>
    <text font-family="Arial" font-size="16" x="48" y="335">wxSvg 1.5.11</text>
    <rect fill="#ccc" height="341" width="1" x="144" y="10"/>
    <text fill="#000" font-family="Arial" font-size="16" x="140" y="365">0</text>
    <rect fill="#ccc" height="341" width="1" x="313" y="10"/>
    <text fill="#000" font-family="Arial" font-size="16" x="300" y="365">343</text>
    <rect fill="#ccc" height="341" width="1" x="483" y="10"/>
    <text fill="#000" font-family="Arial" font-size="16" x="470" y="365">685</text>
    <rect fill="#ccc" height="341" width="1" x="653" y="10"/>
    <text fill="#000" font-family="Arial" font-size="16" x="636" y="365">1028</text>
    <rect fill="#ccc" height="341" width="1" x="823" y="10"/>
    <text fill="#000" font-family="Arial" font-size="16" x="806" y="365">1370</text>
    <rect fill="#3260cd" height="22" width="642" x="144" y="21"/>
    <text fill="#fff" font-family="Arial" font-size="16" x="747" y="38">1297</text>
    <rect fill="#3260cd" height="22" width="606" x="144" y="54"/>
    <text fill="#fff" font-family="Arial" font-size="16" x="711" y="71">1223</text>
    <rect fill="#3260cd" height="22" width="593" x="144" y="87"/>
    <text fill="#fff" font-family="Arial" font-size="16" x="699" y="104">1197</text>
    <rect fill="#3260cd" height="22" width="589" x="144" y="120"/>
    <text fill="#fff" font-family="Arial" font-size="16" x="695" y="137">1189</text>
    <rect fill="#3260cd" height="22" width="466" x="144" y="153"/>
    <text fill="#fff" font-family="Arial" font-size="16" x="580" y="170">942</text>
    <rect fill="#3260cd" height="22" width="498" x="144" y="186"/>
    <text fill="#fff" font-family="Arial" font-size="16" x="603" y="203">1005</text>
    <rect fill="#3260cd" height="22" width="479" x="144" y="219"/>
    <text fill="#fff" font-family="Arial" font-size="16" x="593" y="236">968</text>
    <rect fill="#3260cd" height="22" width="320" x="144" y="252"/>
    <text fill="#fff" font-family="Arial" font-size="16" x="434" y="269">646</text>
    <rect fill="#3260cd" height="22" width="217" x="144" y="285"/>
    <text fill="#fff" font-family="Arial" font-size="16" x="331" y="302">438</text>
    <rect fill="#3260cd" height="22" width="179" x="144" y="318"/>
    <text fill="#fff" font-family="Arial" font-size="16" x="293" y="335">363</text>
    <rect fill="#333" height="341" width="1" x="144" y="10"/>
    <text font-family="Arial" font-size="16" font-style="italic" x="444" y="387">Tests passed</text>
</svg>
