<?xml version="1.0" encoding="UTF-8" standalone="yes"?>
<!-- Generated by https://github.com/RazrFalcon/barh -->
<svg height="359" shape-rendering="crispEdges" width="814" xmlns="http://www.w3.org/2000/svg">
    <rect width="814" height="359" fill="white"/>
    <text font-family="Arial" font-size="16" x="25" y="38">resvg 0.28.0</text>
    <text font-family="Arial" font-size="16" x="25" y="71">Chrome 105</text>
    <text font-family="Arial" font-size="16" x="34" y="104">Firefox 107</text>
    <text font-family="Arial" font-size="16" x="38" y="137">Safari 16.1</text>
    <text font-family="Arial" font-size="16" x="12" y="170">Inkscape 1.2.1</text>
    <text font-family="Arial" font-size="16" x="21" y="203">librsvg 2.55.1</text>
    <text font-family="Arial" font-size="16" x="42" y="236">Batik 1.16</text>
    <text font-family="Arial" font-size="16" x="4" y="269">SVG.NET 3.2.3</text>
    <text font-family="Arial" font-size="16" x="29" y="302">QtSvg 6.4.0</text>
    <rect fill="#ccc" height="308" width="1" x="117" y="10"/>
    <text fill="#000" font-family="Arial" font-size="16" x="113" y="332">0</text>
    <rect fill="#ccc" height="308" width="1" x="286" y="10"/>
    <text fill="#000" font-family="Arial" font-size="16" x="273" y="332">382</text>
    <rect fill="#ccc" height="308" width="1" x="456" y="10"/>
    <text fill="#000" font-family="Arial" font-size="16" x="443" y="332">765</text>
    <rect fill="#ccc" height="308" width="1" x="626" y="10"/>
    <text fill="#000" font-family="Arial" font-size="16" x="609" y="332">1147</text>
    <rect fill="#ccc" height="308" width="1" x="796" y="10"/>
    <text fill="#000" font-family="Arial" font-size="16" x="779" y="332">1529</text>
    <rect fill="#3260cd" height="22" width="643" x="117" y="21"/>
    <text fill="#fff" font-family="Arial" font-size="16" x="721" y="38">1448</text>
    <rect fill="#3260cd" height="22" width="609" x="117" y="54"/>
    <text fill="#fff" font-family="Arial" font-size="16" x="687" y="71">1372</text>
    <rect fill="#3260cd" height="22" width="587" x="117" y="87"/>
    <text fill="#fff" font-family="Arial" font-size="16" x="665" y="104">1323</text>
    <rect fill="#3260cd" height="22" width="566" x="117" y="120"/>
    <text fill="#fff" font-family="Arial" font-size="16" x="644" y="137">1276</text>
    <rect fill="#3260cd" height="22" width="427" x="117" y="153"/>
    <text fill="#fff" font-family="Arial" font-size="16" x="514" y="170">962</text>
    <rect fill="#3260cd" height="22" width="490" x="117" y="186"/>
    <text fill="#fff" font-family="Arial" font-size="16" x="569" y="203">1104</text>
    <rect fill="#3260cd" height="22" width="424" x="117" y="219"/>
    <text fill="#fff" font-family="Arial" font-size="16" x="511" y="236">955</text>
    <rect fill="#3260cd" height="22" width="254" x="117" y="252"/>
    <text fill="#fff" font-family="Arial" font-size="16" x="341" y="269">572</text>
    <rect fill="#3260cd" height="22" width="178" x="117" y="285"/>
    <text fill="#fff" font-family="Arial" font-size="16" x="265" y="302">403</text>
    <rect fill="#333" height="308" width="1" x="117" y="10"/>
    <text font-family="Arial" font-size="16" font-style="italic" x="417" y="354">Tests passed</text>
</svg>
