<?xml version="1.0" encoding="UTF-8" standalone="yes"?>
<!-- Generated by https://github.com/RazrFalcon/barh -->
<svg height="293" shape-rendering="crispEdges" width="841" xmlns="http://www.w3.org/2000/svg">
    <text font-family="Arial" font-size="16" x="61" y="37">resvg 0.8.0</text>
    <text font-family="Arial" font-size="16" x="56" y="71">Firefox 60.7</text>
    <text font-family="Arial" font-size="16" x="4" y="104">Chromium r662092</text>
    <text font-family="Arial" font-size="16" x="27" y="137">Inkscape 0.92.4</text>
    <text font-family="Arial" font-size="16" x="45" y="170">librsvg 2.45.5</text>
    <text font-family="Arial" font-size="16" x="78" y="203">Batik 1.9</text>
    <text font-family="Arial" font-size="16" x="48" y="235">QtSvg 5.12.3</text>
    <rect fill="#ccc" height="242" width="1" x="144" y="10"/>
    <text fill="#000" font-family="Arial" font-size="16" x="140" y="266">0</text>
    <rect fill="#ccc" height="242" width="1" x="313" y="10"/>
    <text fill="#000" font-family="Arial" font-size="16" x="300" y="266">294</text>
    <rect fill="#ccc" height="242" width="1" x="483" y="10"/>
    <text fill="#000" font-family="Arial" font-size="16" x="470" y="266">588</text>
    <rect fill="#ccc" height="242" width="1" x="653" y="10"/>
    <text fill="#000" font-family="Arial" font-size="16" x="640" y="266">882</text>
    <rect fill="#ccc" height="242" width="1" x="822" y="10"/>
    <text fill="#000" font-family="Arial" font-size="16" x="805" y="266">1176</text>
    <rect fill="#3260cd" height="22" width="647" x="144" y="21"/>
    <text fill="#fff" font-family="Arial" font-size="16" x="753" y="37">1122</text>
    <rect fill="#3260cd" height="22" width="603" x="144" y="54"/>
    <text fill="#fff" font-family="Arial" font-size="16" x="708" y="71">1045</text>
    <rect fill="#3260cd" height="22" width="604" x="144" y="87"/>
    <text fill="#fff" font-family="Arial" font-size="16" x="709" y="104">1047</text>
    <rect fill="#3260cd" height="22" width="506" x="144" y="120"/>
    <text fill="#fff" font-family="Arial" font-size="16" x="620" y="137">878</text>
    <rect fill="#3260cd" height="22" width="504" x="144" y="153"/>
    <text fill="#fff" font-family="Arial" font-size="16" x="618" y="170">874</text>
    <rect fill="#3260cd" height="22" width="490" x="144" y="186"/>
    <text fill="#fff" font-family="Arial" font-size="16" x="604" y="203">849</text>
    <rect fill="#3260cd" height="22" width="258" x="144" y="219"/>
    <text fill="#fff" font-family="Arial" font-size="16" x="372" y="235">447</text>
    <rect fill="#333" height="242" width="1" x="144" y="10"/>
    <text font-family="Arial" font-size="16" font-style="italic" x="444" y="288">Tests passed</text>
</svg>
