<?xml version="1.0" encoding="UTF-8" standalone="yes"?>
<!-- Generated by https://github.com/RazrFalcon/barh -->
<svg height="293" shape-rendering="crispEdges" width="840" xmlns="http://www.w3.org/2000/svg">
    <text font-family="Arial" font-size="16" x="62" y="38">resvg 0.6.1</text>
    <text font-family="Arial" font-size="16" x="55" y="71">Firefox 65.0</text>
    <text font-family="Arial" font-size="16" x="4" y="104">Chromium r637110</text>
    <text font-family="Arial" font-size="16" x="26" y="137">Inkscape 0.92.3</text>
    <text font-family="Arial" font-size="16" x="44" y="170">librsvg 2.45.5</text>
    <text font-family="Arial" font-size="16" x="77" y="201">Batik 1.9</text>
    <text font-family="Arial" font-size="16" x="49" y="236">QtSvg 5.12.1</text>
    <rect fill="#ccc" height="242" width="1" x="143" y="10"/>
    <text fill="#000" font-family="Arial" font-size="16" x="139" y="266">0</text>
    <rect fill="#ccc" height="242" width="1" x="312" y="10"/>
    <text fill="#000" font-family="Arial" font-size="16" x="299" y="266">256</text>
    <rect fill="#ccc" height="242" width="1" x="482" y="10"/>
    <text fill="#000" font-family="Arial" font-size="16" x="469" y="266">512</text>
    <rect fill="#ccc" height="242" width="1" x="652" y="10"/>
    <text fill="#000" font-family="Arial" font-size="16" x="639" y="266">767</text>
    <rect fill="#ccc" height="242" width="1" x="822" y="10"/>
    <text fill="#000" font-family="Arial" font-size="16" x="805" y="266">1023</text>
    <rect fill="#3260cd" height="22" width="643" x="143" y="21"/>
    <text fill="#fff" font-family="Arial" font-size="16" x="756" y="38">969</text>
    <rect fill="#3260cd" height="22" width="609" x="143" y="54"/>
    <text fill="#fff" font-family="Arial" font-size="16" x="722" y="71">918</text>
    <rect fill="#3260cd" height="22" width="611" x="143" y="87"/>
    <text fill="#fff" font-family="Arial" font-size="16" x="726" y="104">921</text>
    <rect fill="#3260cd" height="22" width="524" x="143" y="120"/>
    <text fill="#fff" font-family="Arial" font-size="16" x="637" y="137">790</text>
    <rect fill="#3260cd" height="22" width="523" x="143" y="153"/>
    <text fill="#fff" font-family="Arial" font-size="16" x="636" y="170">788</text>
    <rect fill="#3260cd" height="22" width="491" x="143" y="186"/>
    <text fill="#fff" font-family="Arial" font-size="16" x="606" y="203">741</text>
    <rect fill="#3260cd" height="22" width="275" x="143" y="219"/>
    <text fill="#fff" font-family="Arial" font-size="16" x="388" y="236">415</text>
    <rect fill="#333" height="242" width="1" x="143" y="10"/>
    <text font-family="Arial" font-size="16" font-style="italic" x="443" y="288">Tests passed</text>
</svg>
