<?xml version="1.0" encoding="UTF-8" standalone="yes"?>
<!-- Generated by https://github.com/RazrFalcon/barh -->
<svg height="326" shape-rendering="crispEdges" width="842" xmlns="http://www.w3.org/2000/svg">
    <text font-family="Arial" font-size="16" x="62" y="38">resvg 0.9.0</text>
    <text font-family="Arial" font-size="16" x="4" y="71">Chromium r706915</text>
    <text font-family="Arial" font-size="16" x="57" y="104">Firefox 60.7</text>
    <text font-family="Arial" font-size="16" x="28" y="137">Inkscape 0.92.4</text>
    <text font-family="Arial" font-size="16" x="46" y="170">librsvg 2.47.2</text>
    <text font-family="Arial" font-size="16" x="71" y="203">Batik 1.12</text>
    <text font-family="Arial" font-size="16" x="49" y="236">QtSvg 5.13.2</text>
    <text font-family="Arial" font-size="16" x="49" y="269">wxSvg 1.5.11</text>
    <rect fill="#ccc" height="275" width="1" x="145" y="10"/>
    <text fill="#000" font-family="Arial" font-size="16" x="141" y="299">0</text>
    <rect fill="#ccc" height="275" width="1" x="314" y="10"/>
    <text fill="#000" font-family="Arial" font-size="16" x="302" y="299">331</text>
    <rect fill="#ccc" height="275" width="1" x="484" y="10"/>
    <text fill="#000" font-family="Arial" font-size="16" x="471" y="299">662</text>
    <rect fill="#ccc" height="275" width="1" x="654" y="10"/>
    <text fill="#000" font-family="Arial" font-size="16" x="641" y="299">992</text>
    <rect fill="#ccc" height="275" width="1" x="824" y="10"/>
    <text fill="#000" font-family="Arial" font-size="16" x="807" y="299">1323</text>
    <rect fill="#3260cd" height="22" width="647" x="145" y="21"/>
    <text fill="#fff" font-family="Arial" font-size="16" x="755" y="38">1261</text>
    <rect fill="#3260cd" height="22" width="599" x="145" y="54"/>
    <text fill="#fff" font-family="Arial" font-size="16" x="706" y="71">1169</text>
    <rect fill="#3260cd" height="22" width="595" x="145" y="87"/>
    <text fill="#fff" font-family="Arial" font-size="16" x="704" y="104">1161</text>
    <rect fill="#3260cd" height="22" width="490" x="145" y="120"/>
    <text fill="#fff" font-family="Arial" font-size="16" x="605" y="137">955</text>
    <rect fill="#3260cd" height="22" width="502" x="145" y="153"/>
    <text fill="#fff" font-family="Arial" font-size="16" x="617" y="170">979</text>
    <rect fill="#3260cd" height="22" width="478" x="145" y="186"/>
    <text fill="#fff" font-family="Arial" font-size="16" x="593" y="203">933</text>
    <rect fill="#3260cd" height="22" width="234" x="145" y="219"/>
    <text fill="#fff" font-family="Arial" font-size="16" x="349" y="236">456</text>
    <rect fill="#3260cd" height="22" width="171" x="145" y="252"/>
    <text fill="#fff" font-family="Arial" font-size="16" x="286" y="269">335</text>
    <rect fill="#333" height="275" width="1" x="145" y="10"/>
    <text font-family="Arial" font-size="16" font-style="italic" x="445" y="321">Tests passed</text>
</svg>
