<?xml version="1.0" encoding="UTF-8" standalone="yes"?>
<!-- Generated by https://github.com/RazrFalcon/barh -->
<svg height="293" shape-rendering="crispEdges" width="841" xmlns="http://www.w3.org/2000/svg">
    <text font-family="Arial" font-size="16" x="61" y="38">resvg 0.7.0</text>
    <text font-family="Arial" font-size="16" x="56" y="71">Firefox 60.7</text>
    <text font-family="Arial" font-size="16" x="4" y="104">Chromium r662092</text>
    <text font-family="Arial" font-size="16" x="27" y="137">Inkscape 0.92.4</text>
    <text font-family="Arial" font-size="16" x="45" y="170">librsvg 2.45.5</text>
    <text font-family="Arial" font-size="16" x="78" y="203">Batik 1.9</text>
    <text font-family="Arial" font-size="16" x="48" y="236">QtSvg 5.12.3</text>
    <rect fill="#ccc" height="242" width="1" x="144" y="10"/>
    <text fill="#000" font-family="Arial" font-size="16" x="140" y="266">0</text>
    <rect fill="#ccc" height="242" width="1" x="314" y="10"/>
    <text fill="#000" font-family="Arial" font-size="16" x="301" y="266">278</text>
    <rect fill="#ccc" height="242" width="1" x="484" y="10"/>
    <text fill="#000" font-family="Arial" font-size="16" x="471" y="266">556</text>
    <rect fill="#ccc" height="242" width="1" x="654" y="10"/>
    <text fill="#000" font-family="Arial" font-size="16" x="641" y="266">834</text>
    <rect fill="#ccc" height="242" width="1" x="824" y="10"/>
    <text fill="#000" font-family="Arial" font-size="16" x="808" y="266">1112</text>
    <rect fill="#3260cd" height="22" width="646" x="144" y="21"/>
    <text fill="#fff" font-family="Arial" font-size="16" x="751" y="38">1057</text>
    <rect fill="#3260cd" height="22" width="602" x="144" y="54"/>
    <text fill="#fff" font-family="Arial" font-size="16" x="716" y="71">986</text>
    <rect fill="#3260cd" height="22" width="604" x="144" y="87"/>
    <text fill="#fff" font-family="Arial" font-size="16" x="718" y="104">989</text>
    <rect fill="#3260cd" height="22" width="511" x="144" y="120"/>
    <text fill="#fff" font-family="Arial" font-size="16" x="625" y="137">836</text>
    <rect fill="#3260cd" height="22" width="503" x="144" y="153"/>
    <text fill="#fff" font-family="Arial" font-size="16" x="617" y="170">824</text>
    <rect fill="#3260cd" height="22" width="492" x="144" y="186"/>
    <text fill="#fff" font-family="Arial" font-size="16" x="606" y="203">806</text>
    <rect fill="#3260cd" height="22" width="262" x="144" y="219"/>
    <text fill="#fff" font-family="Arial" font-size="16" x="376" y="236">430</text>
    <rect fill="#333" height="242" width="1" x="144" y="10"/>
    <text font-family="Arial" font-size="16" font-style="italic" x="444" y="288">Tests passed</text>
</svg>
