<?xml version="1.0" encoding="UTF-8" standalone="yes"?>
<!-- Generated by https://github.com/RazrFalcon/barh -->
<svg height="359" shape-rendering="crispEdges" width="842" xmlns="http://www.w3.org/2000/svg">
    <text font-family="Arial" font-size="16" x="53" y="38">resvg 0.10.0</text>
    <text font-family="Arial" font-size="16" x="4" y="71">Chromium r756035</text>
    <text font-family="Arial" font-size="16" x="70" y="104">Firefox 77</text>
    <text font-family="Arial" font-size="16" x="51" y="137">Inkscape 1.0</text>
    <text font-family="Arial" font-size="16" x="49" y="170">librsvg 2.49.1</text>
    <text font-family="Arial" font-size="16" x="70" y="203">Batik 1.13</text>
    <text font-family="Arial" font-size="16" x="14" y="236">SVG.NET 3.0.102</text>
    <text font-family="Arial" font-size="16" x="49" y="269">QtSvg 5.14.2</text>
    <text font-family="Arial" font-size="16" x="49" y="302">wxSvg 1.5.11</text>
    <rect fill="#ccc" height="308" width="1" x="145" y="10"/>
    <text fill="#000" font-family="Arial" font-size="16" x="141" y="332">0</text>
    <rect fill="#ccc" height="308" width="1" x="314" y="10"/>
    <text fill="#000" font-family="Arial" font-size="16" x="301" y="332">333</text>
    <rect fill="#ccc" height="308" width="1" x="484" y="10"/>
    <text fill="#000" font-family="Arial" font-size="16" x="471" y="332">666</text>
    <rect fill="#ccc" height="308" width="1" x="654" y="10"/>
    <text fill="#000" font-family="Arial" font-size="16" x="641" y="332">999</text>
    <rect fill="#ccc" height="308" width="1" x="824" y="10"/>
    <text fill="#000" font-family="Arial" font-size="16" x="807" y="332">1332</text>
    <rect fill="#3260cd" height="22" width="646" x="145" y="21"/>
    <text fill="#fff" font-family="Arial" font-size="16" x="752" y="38">1269</text>
    <rect fill="#3260cd" height="22" width="600" x="145" y="54"/>
    <text fill="#fff" font-family="Arial" font-size="16" x="707" y="71">1178</text>
    <rect fill="#3260cd" height="22" width="595" x="145" y="87"/>
    <text fill="#fff" font-family="Arial" font-size="16" x="702" y="104">1169</text>
    <rect fill="#3260cd" height="22" width="492" x="145" y="120"/>
    <text fill="#fff" font-family="Arial" font-size="16" x="607" y="137">967</text>
    <rect fill="#3260cd" height="22" width="509" x="145" y="153"/>
    <text fill="#fff" font-family="Arial" font-size="16" x="615" y="170">1000</text>
    <rect fill="#3260cd" height="22" width="478" x="145" y="186"/>
    <text fill="#fff" font-family="Arial" font-size="16" x="593" y="203">939</text>
    <rect fill="#3260cd" height="22" width="305" x="145" y="219"/>
    <text fill="#fff" font-family="Arial" font-size="16" x="420" y="236">599</text>
    <rect fill="#3260cd" height="22" width="230" x="145" y="252"/>
    <text fill="#fff" font-family="Arial" font-size="16" x="345" y="269">452</text>
    <rect fill="#3260cd" height="22" width="171" x="145" y="285"/>
    <text fill="#fff" font-family="Arial" font-size="16" x="286" y="302">337</text>
    <rect fill="#333" height="308" width="1" x="145" y="10"/>
    <text font-family="Arial" font-size="16" font-style="italic" x="445" y="354">Tests passed</text>
</svg>
