<?xml version="1.0" encoding="UTF-8" standalone="yes"?>
<!-- Generated by https://github.com/RazrFalcon/barh -->
<svg height="293" shape-rendering="crispEdges" width="840" xmlns="http://www.w3.org/2000/svg">
    <text font-family="Arial" font-size="16" x="60" y="38">resvg 0.6.0</text>
    <text font-family="Arial" font-size="16" x="55" y="71">Firefox 65.0</text>
    <text font-family="Arial" font-size="16" x="4" y="104">Chromium r637110</text>
    <text font-family="Arial" font-size="16" x="26" y="137">Inkscape 0.92.3</text>
    <text font-family="Arial" font-size="16" x="44" y="170">librsvg 2.45.5</text>
    <text font-family="Arial" font-size="16" x="77" y="203">Batik 1.9</text>
    <text font-family="Arial" font-size="16" x="49" y="234">QtSvg 5.12.1</text>
    <rect fill="#ccc" height="242" width="1" x="143" y="10"/>
    <text fill="#000" font-family="Arial" font-size="16" x="139" y="266">0</text>
    <rect fill="#ccc" height="242" width="1" x="313" y="10"/>
    <text fill="#000" font-family="Arial" font-size="16" x="300" y="266">255</text>
    <rect fill="#ccc" height="242" width="1" x="483" y="10"/>
    <text fill="#000" font-family="Arial" font-size="16" x="472" y="266">511</text>
    <rect fill="#ccc" height="242" width="1" x="653" y="10"/>
    <text fill="#000" font-family="Arial" font-size="16" x="640" y="266">766</text>
    <rect fill="#ccc" height="242" width="1" x="823" y="10"/>
    <text fill="#000" font-family="Arial" font-size="16" x="807" y="266">1021</text>
    <rect fill="#3260cd" height="22" width="644" x="143" y="21"/>
    <text fill="#fff" font-family="Arial" font-size="16" x="757" y="38">967</text>
    <rect fill="#3260cd" height="22" width="610" x="143" y="54"/>
    <text fill="#fff" font-family="Arial" font-size="16" x="723" y="71">916</text>
    <rect fill="#3260cd" height="22" width="612" x="143" y="87"/>
    <text fill="#fff" font-family="Arial" font-size="16" x="725" y="104">919</text>
    <rect fill="#3260cd" height="22" width="524" x="143" y="120"/>
    <text fill="#fff" font-family="Arial" font-size="16" x="637" y="137">788</text>
    <rect fill="#3260cd" height="22" width="523" x="143" y="153"/>
    <text fill="#fff" font-family="Arial" font-size="16" x="636" y="170">786</text>
    <rect fill="#3260cd" height="22" width="492" x="143" y="186"/>
    <text fill="#fff" font-family="Arial" font-size="16" x="605" y="203">739</text>
    <rect fill="#3260cd" height="22" width="275" x="143" y="219"/>
    <text fill="#fff" font-family="Arial" font-size="16" x="388" y="236">414</text>
    <rect fill="#333" height="242" width="1" x="143" y="10"/>
    <text font-family="Arial" font-size="16" font-style="italic" x="443" y="288">Tests passed</text>
</svg>
