<?xml version="1.0" encoding="UTF-8" standalone="yes"?>
<!-- Generated by https://github.com/RazrFalcon/barh -->
<svg height="359" shape-rendering="crispEdges" width="814" xmlns="http://www.w3.org/2000/svg">
    <rect width="814" height="359" fill="white"/>
    <text font-family="Arial" font-size="16" x="25" y="38">resvg 0.33.0</text>
    <text font-family="Arial" font-size="16" x="25" y="71">Chrome 105</text>
    <text font-family="Arial" font-size="16" x="34" y="104">Firefox 107</text>
    <text font-family="Arial" font-size="16" x="38" y="137">Safari 16.1</text>
    <text font-family="Arial" font-size="16" x="21" y="170">librsvg 2.55.1</text>
    <text font-family="Arial" font-size="16" x="12" y="203">Inkscape 1.2.1</text>
    <text font-family="Arial" font-size="16" x="42" y="236">Batik 1.16</text>
    <text font-family="Arial" font-size="16" x="4" y="269">SVG.NET 3.2.3</text>
    <text font-family="Arial" font-size="16" x="29" y="302">QtSvg 6.4.0</text>
    <rect fill="#ccc" height="308" width="1" x="117" y="10"/>
    <text fill="#000" font-family="Arial" font-size="16" x="113" y="332">0</text>
    <rect fill="#ccc" height="308" width="1" x="286" y="10"/>
    <text fill="#000" font-family="Arial" font-size="16" x="273" y="332">387</text>
    <rect fill="#ccc" height="308" width="1" x="456" y="10"/>
    <text fill="#000" font-family="Arial" font-size="16" x="443" y="332">774</text>
    <rect fill="#ccc" height="308" width="1" x="626" y="10"/>
    <text fill="#000" font-family="Arial" font-size="16" x="610" y="332">1161</text>
    <rect fill="#ccc" height="308" width="1" x="796" y="10"/>
    <text fill="#000" font-family="Arial" font-size="16" x="779" y="332">1548</text>
    <rect fill="#3260cd" height="22" width="635" x="117" y="21"/>
    <text fill="#fff" font-family="Arial" font-size="16" x="713" y="38">1448</text>
    <rect fill="#3260cd" height="22" width="608" x="117" y="54"/>
    <text fill="#fff" font-family="Arial" font-size="16" x="686" y="71">1388</text>
    <rect fill="#3260cd" height="22" width="586" x="117" y="87"/>
    <text fill="#fff" font-family="Arial" font-size="16" x="664" y="104">1338</text>
    <rect fill="#3260cd" height="22" width="565" x="117" y="120"/>
    <text fill="#fff" font-family="Arial" font-size="16" x="643" y="137">1290</text>
    <rect fill="#3260cd" height="22" width="492" x="117" y="153"/>
    <text fill="#fff" font-family="Arial" font-size="16" x="571" y="170">1123</text>
    <rect fill="#3260cd" height="22" width="425" x="117" y="186"/>
    <text fill="#fff" font-family="Arial" font-size="16" x="514" y="203">971</text>
    <rect fill="#3260cd" height="22" width="423" x="117" y="219"/>
    <text fill="#fff" font-family="Arial" font-size="16" x="510" y="236">965</text>
    <rect fill="#3260cd" height="22" width="234" x="117" y="252"/>
    <text fill="#fff" font-family="Arial" font-size="16" x="321" y="269">534</text>
    <rect fill="#3260cd" height="22" width="179" x="117" y="285"/>
    <text fill="#fff" font-family="Arial" font-size="16" x="266" y="302">409</text>
    <rect fill="#333" height="308" width="1" x="117" y="10"/>
    <text font-family="Arial" font-size="16" font-style="italic" x="417" y="354">Tests passed</text>
</svg>
