<?xml version="1.0" encoding="UTF-8" standalone="yes"?>
<!-- Generated by https://github.com/RazrFalcon/barh -->
<svg height="293" shape-rendering="crispEdges" width="840" xmlns="http://www.w3.org/2000/svg">
    <text font-family="Arial" font-size="16" x="60" y="38">resvg 0.6.1</text>
    <text font-family="Arial" font-size="16" x="55" y="71">Firefox 65.0</text>
    <text font-family="Arial" font-size="16" x="4" y="104">Chromium r637110</text>
    <text font-family="Arial" font-size="16" x="26" y="137">Inkscape 0.92.3</text>
    <text font-family="Arial" font-size="16" x="44" y="168">librsvg 2.45.5</text>
    <text font-family="Arial" font-size="16" x="77" y="203">Batik 1.9</text>
    <text font-family="Arial" font-size="16" x="49" y="234">QtSvg 5.12.1</text>
    <rect fill="#ccc" height="242" width="1" x="143" y="10"/>
    <text fill="#000" font-family="Arial" font-size="16" x="139" y="266">0</text>
    <rect fill="#ccc" height="242" width="1" x="313" y="10"/>
    <text fill="#000" font-family="Arial" font-size="16" x="305" y="266">84</text>
    <rect fill="#ccc" height="242" width="1" x="484" y="10"/>
    <text fill="#000" font-family="Arial" font-size="16" x="471" y="266">169</text>
    <rect fill="#ccc" height="242" width="1" x="655" y="10"/>
    <text fill="#000" font-family="Arial" font-size="16" x="642" y="266">253</text>
    <rect fill="#ccc" height="242" width="1" x="826" y="10"/>
    <text fill="#000" font-family="Arial" font-size="16" x="813" y="266">337</text>
    <rect fill="#3260cd" height="22" width="504" x="143" y="21"/>
    <text fill="#fff" font-family="Arial" font-size="16" x="617" y="38">249</text>
    <rect fill="#3260cd" height="22" width="583" x="143" y="54"/>
    <text fill="#fff" font-family="Arial" font-size="16" x="696" y="71">288</text>
    <rect fill="#3260cd" height="22" width="593" x="143" y="87"/>
    <text fill="#fff" font-family="Arial" font-size="16" x="706" y="104">293</text>
    <rect fill="#3260cd" height="22" width="510" x="143" y="120"/>
    <text fill="#fff" font-family="Arial" font-size="16" x="623" y="137">252</text>
    <rect fill="#3260cd" height="22" width="449" x="143" y="153"/>
    <text fill="#fff" font-family="Arial" font-size="16" x="562" y="170">222</text>
    <rect fill="#3260cd" height="22" width="520" x="143" y="186"/>
    <text fill="#fff" font-family="Arial" font-size="16" x="633" y="203">257</text>
    <rect fill="#3260cd" height="22" width="285" x="143" y="219"/>
    <text fill="#fff" font-family="Arial" font-size="16" x="400" y="236">141</text>
    <rect fill="#333" height="242" width="1" x="143" y="10"/>
    <text font-family="Arial" font-size="16" font-style="italic" x="443" y="288">Tests passed</text>
</svg>
