<?xml version="1.0" encoding="UTF-8" standalone="yes"?>
<!-- Generated by https://github.com/RazrFalcon/barh -->
<svg height="260" shape-rendering="crispEdges" width="841" xmlns="http://www.w3.org/2000/svg">
    <text font-family="Arial" font-size="16" x="61" y="36">resvg 0.3.0</text>
    <text font-family="Arial" font-size="16" x="4" y="71">Chromium r555668</text>
    <text font-family="Arial" font-size="16" x="78" y="104">Batik 1.9</text>
    <text font-family="Arial" font-size="16" x="27" y="137">Inkscape 0.92.2</text>
    <text font-family="Arial" font-size="16" x="45" y="170">librsvg 2.42.4</text>
    <text font-family="Arial" font-size="16" x="50" y="201">QtSvg 5.10.1</text>
    <rect fill="#ccc" height="209" width="1" x="144" y="10"/>
    <text fill="#000" font-family="Arial" font-size="16" x="140" y="233">0</text>
    <rect fill="#ccc" height="209" width="1" x="314" y="10"/>
    <text fill="#000" font-family="Arial" font-size="16" x="306" y="233">85</text>
    <rect fill="#ccc" height="209" width="1" x="485" y="10"/>
    <text fill="#000" font-family="Arial" font-size="16" x="472" y="233">169</text>
    <rect fill="#ccc" height="209" width="1" x="656" y="10"/>
    <text fill="#000" font-family="Arial" font-size="16" x="643" y="233">254</text>
    <rect fill="#ccc" height="209" width="1" x="827" y="10"/>
    <text fill="#000" font-family="Arial" font-size="16" x="814" y="233">338</text>
    <rect fill="#3260cd" height="22" width="446" x="144" y="21"/>
    <text fill="#fff" font-family="Arial" font-size="16" x="562" y="36">221</text>
    <rect fill="#3260cd" height="22" width="604" x="144" y="54"/>
    <text fill="#fff" font-family="Arial" font-size="16" x="718" y="71">299</text>
    <rect fill="#3260cd" height="22" width="513" x="144" y="87"/>
    <text fill="#fff" font-family="Arial" font-size="16" x="627" y="104">254</text>
    <rect fill="#3260cd" height="22" width="519" x="144" y="120"/>
    <text fill="#fff" font-family="Arial" font-size="16" x="633" y="137">257</text>
    <rect fill="#3260cd" height="22" width="408" x="144" y="153"/>
    <text fill="#fff" font-family="Arial" font-size="16" x="522" y="170">202</text>
    <rect fill="#3260cd" height="22" width="284" x="144" y="186"/>
    <text fill="#fff" font-family="Arial" font-size="16" x="400" y="201">141</text>
    <rect fill="#333" height="209" width="1" x="144" y="10"/>
    <text font-family="Arial" font-size="16" font-style="italic" x="444" y="255">Tests passed</text>
</svg>
