<?xml version="1.0" encoding="UTF-8" standalone="yes"?>
<!-- Generated by https://github.com/RazrFalcon/barh -->
<svg height="260" shape-rendering="crispEdges" width="839" xmlns="http://www.w3.org/2000/svg">
    <text font-family="Arial" font-size="16" x="59" y="38">resvg 0.2.0</text>
    <text font-family="Arial" font-size="16" x="4" y="71">Chromium r549031</text>
    <text font-family="Arial" font-size="16" x="76" y="104">Batik 1.9</text>
    <text font-family="Arial" font-size="16" x="25" y="137">Inkscape 0.92.2</text>
    <text font-family="Arial" font-size="16" x="34" y="170">librsvg 2.40.18</text>
    <text font-family="Arial" font-size="16" x="54" y="201">QtSvg 5.9.4</text>
    <rect fill="#ccc" height="209" width="1" x="142" y="10"/>
    <text fill="#000" font-family="Arial" font-size="16" x="138" y="233">0</text>
    <rect fill="#ccc" height="209" width="1" x="312" y="10"/>
    <text fill="#000" font-family="Arial" font-size="16" x="304" y="233">85</text>
    <rect fill="#ccc" height="209" width="1" x="483" y="10"/>
    <text fill="#000" font-family="Arial" font-size="16" x="470" y="233">169</text>
    <rect fill="#ccc" height="209" width="1" x="654" y="10"/>
    <text fill="#000" font-family="Arial" font-size="16" x="641" y="233">254</text>
    <rect fill="#ccc" height="209" width="1" x="825" y="10"/>
    <text fill="#000" font-family="Arial" font-size="16" x="812" y="233">338</text>
    <rect fill="#3260cd" height="22" width="392" x="142" y="21"/>
    <text fill="#fff" font-family="Arial" font-size="16" x="504" y="38">194</text>
    <rect fill="#3260cd" height="22" width="606" x="142" y="54"/>
    <text fill="#fff" font-family="Arial" font-size="16" x="718" y="71">300</text>
    <rect fill="#3260cd" height="22" width="515" x="142" y="87"/>
    <text fill="#fff" font-family="Arial" font-size="16" x="627" y="104">255</text>
    <rect fill="#3260cd" height="22" width="523" x="142" y="120"/>
    <text fill="#fff" font-family="Arial" font-size="16" x="635" y="137">259</text>
    <rect fill="#3260cd" height="22" width="385" x="142" y="153"/>
    <text fill="#fff" font-family="Arial" font-size="16" x="499" y="170">191</text>
    <rect fill="#3260cd" height="22" width="286" x="142" y="186"/>
    <text fill="#fff" font-family="Arial" font-size="16" x="398" y="201">142</text>
    <rect fill="#333" height="209" width="1" x="142" y="10"/>
    <text font-family="Arial" font-size="16" font-style="italic" x="442" y="255">Tests passed</text>
</svg>
