<?xml version="1.0" encoding="UTF-8" standalone="yes"?>
<!-- Generated by https://github.com/RazrFalcon/barh -->
<svg height="293" shape-rendering="crispEdges" width="841" xmlns="http://www.w3.org/2000/svg">
    <text font-family="Arial" font-size="16" x="61" y="38">resvg 0.5.0</text>
    <text font-family="Arial" font-size="16" x="56" y="71">Firefox 64.0</text>
    <text font-family="Arial" font-size="16" x="4" y="104">Chromium r609904</text>
    <text font-family="Arial" font-size="16" x="27" y="137">Inkscape 0.92.3</text>
    <text font-family="Arial" font-size="16" x="45" y="168">librsvg 2.45.2</text>
    <text font-family="Arial" font-size="16" x="78" y="203">Batik 1.9</text>
    <text font-family="Arial" font-size="16" x="51" y="234">QtSvg 5.11.1</text>
    <rect fill="#ccc" height="242" width="1" x="144" y="10"/>
    <text fill="#000" font-family="Arial" font-size="16" x="140" y="266">0</text>
    <rect fill="#ccc" height="242" width="1" x="314" y="10"/>
    <text fill="#000" font-family="Arial" font-size="16" x="306" y="266">84</text>
    <rect fill="#ccc" height="242" width="1" x="485" y="10"/>
    <text fill="#000" font-family="Arial" font-size="16" x="472" y="266">169</text>
    <rect fill="#ccc" height="242" width="1" x="656" y="10"/>
    <text fill="#000" font-family="Arial" font-size="16" x="643" y="266">253</text>
    <rect fill="#ccc" height="242" width="1" x="827" y="10"/>
    <text fill="#000" font-family="Arial" font-size="16" x="814" y="266">337</text>
    <rect fill="#3260cd" height="22" width="504" x="144" y="21"/>
    <text fill="#fff" font-family="Arial" font-size="16" x="618" y="38">249</text>
    <rect fill="#3260cd" height="22" width="583" x="144" y="54"/>
    <text fill="#fff" font-family="Arial" font-size="16" x="697" y="71">288</text>
    <rect fill="#3260cd" height="22" width="593" x="144" y="87"/>
    <text fill="#fff" font-family="Arial" font-size="16" x="707" y="104">293</text>
    <rect fill="#3260cd" height="22" width="512" x="144" y="120"/>
    <text fill="#fff" font-family="Arial" font-size="16" x="626" y="137">253</text>
    <rect fill="#3260cd" height="22" width="449" x="144" y="153"/>
    <text fill="#fff" font-family="Arial" font-size="16" x="563" y="168">222</text>
    <rect fill="#3260cd" height="22" width="520" x="144" y="186"/>
    <text fill="#fff" font-family="Arial" font-size="16" x="634" y="203">257</text>
    <rect fill="#3260cd" height="22" width="285" x="144" y="219"/>
    <text fill="#fff" font-family="Arial" font-size="16" x="401" y="234">141</text>
    <rect fill="#333" height="242" width="1" x="144" y="10"/>
    <text font-family="Arial" font-size="16" font-style="italic" x="444" y="288">Tests passed</text>
</svg>
