<?xml version="1.0" encoding="UTF-8" standalone="yes"?>
<!-- Generated by https://github.com/RazrFalcon/barh -->
<svg height="326" shape-rendering="crispEdges" width="842" xmlns="http://www.w3.org/2000/svg">
    <text font-family="Arial" font-size="16" x="62" y="38">resvg 0.9.0</text>
    <text font-family="Arial" font-size="16" x="4" y="71">Chromium r706915</text>
    <text font-family="Arial" font-size="16" x="57" y="104">Firefox 60.7</text>
    <text font-family="Arial" font-size="16" x="28" y="137">Inkscape 0.92.4</text>
    <text font-family="Arial" font-size="16" x="46" y="168">librsvg 2.47.2</text>
    <text font-family="Arial" font-size="16" x="71" y="203">Batik 1.12</text>
    <text font-family="Arial" font-size="16" x="49" y="236">QtSvg 5.13.2</text>
    <text font-family="Arial" font-size="16" x="49" y="269">wxSvg 1.5.11</text>
    <rect fill="#ccc" height="275" width="1" x="145" y="10"/>
    <text fill="#000" font-family="Arial" font-size="16" x="141" y="299">0</text>
    <rect fill="#ccc" height="275" width="1" x="315" y="10"/>
    <text fill="#000" font-family="Arial" font-size="16" x="307" y="299">84</text>
    <rect fill="#ccc" height="275" width="1" x="486" y="10"/>
    <text fill="#000" font-family="Arial" font-size="16" x="473" y="299">169</text>
    <rect fill="#ccc" height="275" width="1" x="657" y="10"/>
    <text fill="#000" font-family="Arial" font-size="16" x="644" y="299">253</text>
    <rect fill="#ccc" height="275" width="1" x="828" y="10"/>
    <text fill="#000" font-family="Arial" font-size="16" x="815" y="299">337</text>
    <rect fill="#3260cd" height="22" width="567" x="145" y="21"/>
    <text fill="#fff" font-family="Arial" font-size="16" x="682" y="38">280</text>
    <rect fill="#3260cd" height="22" width="591" x="145" y="54"/>
    <text fill="#fff" font-family="Arial" font-size="16" x="706" y="71">292</text>
    <rect fill="#3260cd" height="22" width="583" x="145" y="87"/>
    <text fill="#fff" font-family="Arial" font-size="16" x="698" y="104">288</text>
    <rect fill="#3260cd" height="22" width="504" x="145" y="120"/>
    <text fill="#fff" font-family="Arial" font-size="16" x="619" y="137">249</text>
    <rect fill="#3260cd" height="22" width="453" x="145" y="153"/>
    <text fill="#fff" font-family="Arial" font-size="16" x="568" y="168">224</text>
    <rect fill="#3260cd" height="22" width="545" x="145" y="186"/>
    <text fill="#fff" font-family="Arial" font-size="16" x="660" y="203">269</text>
    <rect fill="#3260cd" height="22" width="281" x="145" y="219"/>
    <text fill="#fff" font-family="Arial" font-size="16" x="396" y="236">139</text>
    <rect fill="#3260cd" height="22" width="131" x="145" y="252"/>
    <text fill="#fff" font-family="Arial" font-size="16" x="255" y="269">65</text>
    <rect fill="#333" height="275" width="1" x="145" y="10"/>
    <text font-family="Arial" font-size="16" font-style="italic" x="445" y="321">Tests passed</text>
</svg>
