<?xml version="1.0" encoding="UTF-8" standalone="yes"?>
<!-- Generated by https://github.com/RazrFalcon/barh -->
<svg height="280" shape-rendering="crispEdges" width="845" xmlns="http://www.w3.org/2000/svg">
    <text font-family="Arial" font-size="16" font-weight="bold" x="161" y="16">Time to render Oxygen Icon Theme 4.12</text>
    <text font-family="Arial" font-size="16" x="16" y="58">resvg 0.8.0 (cairo)</text>
    <text font-family="Arial" font-size="16" x="37" y="91">resvg 0.8.0 (qt)</text>
    <text font-family="Arial" font-size="16" x="4" y="124">resvg 0.8.0 (raqote)</text>
    <text font-family="Arial" font-size="16" x="21" y="157">resvg 0.8.0 (skia)</text>
    <text font-family="Arial" font-size="16" x="49" y="190">librsvg 2.45.5</text>
    <text font-family="Arial" font-size="16" x="52" y="223">QtSvg 5.12.3</text>
    <rect fill="#ccc" height="209" width="1" x="161" y="30"/>
    <text fill="#000" font-family="Arial" font-size="16" x="144" y="253">0sec</text>
    <rect fill="#ccc" height="209" width="1" x="325" y="30"/>
    <text fill="#000" font-family="Arial" font-size="16" x="304" y="253">60sec</text>
    <rect fill="#ccc" height="209" width="1" x="489" y="30"/>
    <text fill="#000" font-family="Arial" font-size="16" x="463" y="253">120sec</text>
    <rect fill="#ccc" height="209" width="1" x="653" y="30"/>
    <text fill="#000" font-family="Arial" font-size="16" x="627" y="253">180sec</text>
    <rect fill="#ccc" height="209" width="1" x="818" y="30"/>
    <text fill="#000" font-family="Arial" font-size="16" x="792" y="253">240sec</text>
    <rect fill="#3260cd" height="22" width="533" x="161" y="41"/>
    <text fill="#fff" font-family="Arial" font-size="16" x="664" y="58">195</text>
    <rect fill="#3260cd" height="22" width="522" x="161" y="74"/>
    <text fill="#fff" font-family="Arial" font-size="16" x="655" y="91">191</text>
    <rect fill="#3260cd" height="22" width="561" x="161" y="107"/>
    <text fill="#fff" font-family="Arial" font-size="16" x="692" y="124">205</text>
    <rect fill="#3260cd" height="22" width="479" x="161" y="140"/>
    <text fill="#fff" font-family="Arial" font-size="16" x="610" y="157">175</text>
    <rect fill="#3260cd" height="22" width="446" x="161" y="173"/>
    <text fill="#fff" font-family="Arial" font-size="16" x="577" y="190">163</text>
    <rect fill="#3260cd" height="22" width="438" x="161" y="206"/>
    <text fill="#fff" font-family="Arial" font-size="16" x="569" y="223">160</text>
    <rect fill="#333" height="209" width="1" x="161" y="30"/>
    <text font-family="Arial" font-size="16" font-style="italic" x="449" y="275">Time passed</text>
</svg>
