<?xml version="1.0" encoding="UTF-8" standalone="yes"?>
<!-- Generated by https://github.com/RazrFalcon/barh -->
<svg height="214" shape-rendering="crispEdges" width="833" xmlns="http://www.w3.org/2000/svg">
    <text font-family="Arial" font-size="16" font-weight="bold" x="149" y="16">Time to render Elementary OS Icon Theme 5.0</text>
    <text font-family="Arial" font-size="16" x="4" y="58">resvg 0.6.1 (cairo)</text>
    <text font-family="Arial" font-size="16" x="25" y="91">resvg 0.6.1 (qt)</text>
    <text font-family="Arial" font-size="16" x="41" y="124">QtSvg 5.11.3</text>
    <text font-family="Arial" font-size="16" x="37" y="157">librsvg 2.45.5</text>
    <rect fill="#ccc" height="143" width="1" x="149" y="30"/>
    <text fill="#000" font-family="Arial" font-size="16" x="132" y="187">0sec</text>
    <rect fill="#ccc" height="143" width="1" x="314" y="30"/>
    <text fill="#000" font-family="Arial" font-size="16" x="293" y="187">10sec</text>
    <rect fill="#ccc" height="143" width="1" x="480" y="30"/>
    <text fill="#000" font-family="Arial" font-size="16" x="459" y="187">20sec</text>
    <rect fill="#ccc" height="143" width="1" x="645" y="30"/>
    <text fill="#000" font-family="Arial" font-size="16" x="624" y="187">30sec</text>
    <rect fill="#ccc" height="143" width="1" x="811" y="30"/>
    <text fill="#000" font-family="Arial" font-size="16" x="790" y="187">40sec</text>
    <rect fill="#3260cd" height="22" width="331" x="149" y="41"/>
    <text fill="#fff" font-family="Arial" font-size="16" x="459" y="58">20</text>
    <rect fill="#3260cd" height="22" width="595" x="149" y="74"/>
    <text fill="#fff" font-family="Arial" font-size="16" x="723" y="91">36</text>
    <rect fill="#3260cd" height="22" width="496" x="149" y="107"/>
    <text fill="#fff" font-family="Arial" font-size="16" x="624" y="124">30</text>
    <rect fill="#3260cd" height="22" width="380" x="149" y="140"/>
    <text fill="#fff" font-family="Arial" font-size="16" x="508" y="157">23</text>
    <rect fill="#333" height="143" width="1" x="149" y="30"/>
    <text font-family="Arial" font-size="16" font-style="italic" x="437" y="209">Time passed</text>
</svg>
