<?xml version="1.0" encoding="UTF-8" standalone="yes"?>
<!-- Generated by https://github.com/RazrFalcon/barh -->
<svg height="280" shape-rendering="crispEdges" width="845" xmlns="http://www.w3.org/2000/svg">
    <text font-family="Arial" font-size="16" font-weight="bold" x="161" y="16">Time to render Elementary OS Icon Theme 5.0</text>
    <text font-family="Arial" font-size="16" x="16" y="58">resvg 0.8.0 (cairo)</text>
    <text font-family="Arial" font-size="16" x="37" y="91">resvg 0.8.0 (qt)</text>
    <text font-family="Arial" font-size="16" x="4" y="124">resvg 0.8.0 (raqote)</text>
    <text font-family="Arial" font-size="16" x="21" y="157">resvg 0.8.0 (skia)</text>
    <text font-family="Arial" font-size="16" x="49" y="188">librsvg 2.45.5</text>
    <text font-family="Arial" font-size="16" x="52" y="223">QtSvg 5.12.3</text>
    <rect fill="#ccc" height="209" width="1" x="161" y="30"/>
    <text fill="#000" font-family="Arial" font-size="16" x="144" y="253">0sec</text>
    <rect fill="#ccc" height="209" width="1" x="326" y="30"/>
    <text fill="#000" font-family="Arial" font-size="16" x="305" y="253">10sec</text>
    <rect fill="#ccc" height="209" width="1" x="492" y="30"/>
    <text fill="#000" font-family="Arial" font-size="16" x="471" y="253">20sec</text>
    <rect fill="#ccc" height="209" width="1" x="657" y="30"/>
    <text fill="#000" font-family="Arial" font-size="16" x="636" y="253">30sec</text>
    <rect fill="#ccc" height="209" width="1" x="823" y="30"/>
    <text fill="#000" font-family="Arial" font-size="16" x="802" y="253">40sec</text>
    <rect fill="#3260cd" height="22" width="314" x="161" y="41"/>
    <text fill="#fff" font-family="Arial" font-size="16" x="454" y="58">19</text>
    <rect fill="#3260cd" height="22" width="579" x="161" y="74"/>
    <text fill="#fff" font-family="Arial" font-size="16" x="719" y="91">35</text>
    <rect fill="#3260cd" height="22" width="314" x="161" y="107"/>
    <text fill="#fff" font-family="Arial" font-size="16" x="454" y="124">19</text>
    <rect fill="#3260cd" height="22" width="314" x="161" y="140"/>
    <text fill="#fff" font-family="Arial" font-size="16" x="454" y="157">19</text>
    <rect fill="#3260cd" height="22" width="397" x="161" y="173"/>
    <text fill="#fff" font-family="Arial" font-size="16" x="537" y="188">24</text>
    <rect fill="#3260cd" height="22" width="496" x="161" y="206"/>
    <text fill="#fff" font-family="Arial" font-size="16" x="636" y="223">30</text>
    <rect fill="#333" height="209" width="1" x="161" y="30"/>
    <text font-family="Arial" font-size="16" font-style="italic" x="449" y="275">Time passed</text>
</svg>
