<?xml version="1.0" encoding="UTF-8" standalone="yes"?>
<!-- Generated by https://github.com/RazrFalcon/barh -->
<svg height="247" shape-rendering="crispEdges" width="845" xmlns="http://www.w3.org/2000/svg">
    <text font-family="Arial" font-size="16" font-weight="bold" x="161" y="16">Time to render Oxygen Icon Theme 4.12</text>
    <text font-family="Arial" font-size="16" x="16" y="58">resvg 0.7.0 (cairo)</text>
    <text font-family="Arial" font-size="16" x="37" y="91">resvg 0.7.0 (qt)</text>
    <text font-family="Arial" font-size="16" x="4" y="124">resvg 0.7.0 (raqote)</text>
    <text font-family="Arial" font-size="16" x="52" y="157">QtSvg 5.12.3</text>
    <text font-family="Arial" font-size="16" x="49" y="190">librsvg 2.45.5</text>
    <rect fill="#ccc" height="176" width="1" x="161" y="30"/>
    <text fill="#000" font-family="Arial" font-size="16" x="144" y="220">0sec</text>
    <rect fill="#ccc" height="176" width="1" x="325" y="30"/>
    <text fill="#000" font-family="Arial" font-size="16" x="299" y="220">100sec</text>
    <rect fill="#ccc" height="176" width="1" x="489" y="30"/>
    <text fill="#000" font-family="Arial" font-size="16" x="463" y="220">200sec</text>
    <rect fill="#ccc" height="176" width="1" x="653" y="30"/>
    <text fill="#000" font-family="Arial" font-size="16" x="627" y="220">300sec</text>
    <rect fill="#ccc" height="176" width="1" x="818" y="30"/>
    <text fill="#000" font-family="Arial" font-size="16" x="792" y="220">400sec</text>
    <rect fill="#3260cd" height="22" width="410" x="161" y="41"/>
    <text fill="#fff" font-family="Arial" font-size="16" x="541" y="58">250</text>
    <rect fill="#3260cd" height="22" width="389" x="161" y="74"/>
    <text fill="#fff" font-family="Arial" font-size="16" x="520" y="91">237</text>
    <rect fill="#3260cd" height="22" width="509" x="161" y="107"/>
    <text fill="#fff" font-family="Arial" font-size="16" x="640" y="124">310</text>
    <rect fill="#3260cd" height="22" width="262" x="161" y="140"/>
    <text fill="#fff" font-family="Arial" font-size="16" x="393" y="157">160</text>
    <rect fill="#3260cd" height="22" width="267" x="161" y="173"/>
    <text fill="#fff" font-family="Arial" font-size="16" x="398" y="190">163</text>
    <rect fill="#333" height="176" width="1" x="161" y="30"/>
    <text font-family="Arial" font-size="16" font-style="italic" x="449" y="242">Time passed</text>
</svg>
