<?xml version="1.0" encoding="UTF-8" standalone="yes"?>
<!-- Generated by https://github.com/RazrFalcon/barh -->
<svg height="280" shape-rendering="crispEdges" width="833" xmlns="http://www.w3.org/2000/svg">
    <text font-family="Arial" font-size="16" font-weight="bold" x="149" y="16">Time to render Oxygen Icon Theme</text>
    <text font-family="Arial" font-size="16" x="4" y="58">resvg 0.2.0 (cairo)</text>
    <text font-family="Arial" font-size="16" x="25" y="91">resvg 0.2.0 (qt)</text>
    <text font-family="Arial" font-size="16" x="28" y="124">librsvg 2.40.18</text>
    <text font-family="Arial" font-size="16" x="48" y="157">QtSvg 5.9.4</text>
    <text font-family="Arial" font-size="16" x="19" y="190">Inkscape 0.92.2</text>
    <text font-family="Arial" font-size="16" x="70" y="223">Batik 1.9</text>
    <rect fill="#ccc" height="209" width="1" x="149" y="30"/>
    <text fill="#000" font-family="Arial" font-size="16" x="132" y="253">0sec</text>
    <rect fill="#ccc" height="209" width="1" x="312" y="30"/>
    <text fill="#000" font-family="Arial" font-size="16" x="282" y="253">1000sec</text>
    <rect fill="#ccc" height="209" width="1" x="475" y="30"/>
    <text fill="#000" font-family="Arial" font-size="16" x="445" y="253">2000sec</text>
    <rect fill="#ccc" height="209" width="1" x="638" y="30"/>
    <text fill="#000" font-family="Arial" font-size="16" x="608" y="253">3000sec</text>
    <rect fill="#ccc" height="209" width="1" x="802" y="30"/>
    <text fill="#000" font-family="Arial" font-size="16" x="772" y="253">4000sec</text>
    <rect fill="#3260cd" height="22" width="25" x="149" y="41"/>
    <rect fill="#999" height="1" width="12" x="174" y="52"/>
    <text fill="#000" font-family="Arial" font-size="16" x="188" y="58">159</text>
    <rect fill="#3260cd" height="22" width="26" x="149" y="74"/>
    <rect fill="#999" height="1" width="12" x="175" y="85"/>
    <text fill="#000" font-family="Arial" font-size="16" x="189" y="91">163</text>
    <rect fill="#3260cd" height="22" width="32" x="149" y="107"/>
    <rect fill="#999" height="1" width="12" x="181" y="118"/>
    <text fill="#000" font-family="Arial" font-size="16" x="195" y="124">200</text>
    <rect fill="#3260cd" height="22" width="81" x="149" y="140"/>
    <text fill="#fff" font-family="Arial" font-size="16" x="200" y="157">502</text>
    <rect fill="#3260cd" height="22" width="262" x="149" y="173"/>
    <text fill="#fff" font-family="Arial" font-size="16" x="372" y="190">1610</text>
    <rect fill="#3260cd" height="22" width="601" x="149" y="206"/>
    <text fill="#fff" font-family="Arial" font-size="16" x="711" y="223">3686</text>
    <rect fill="#333" height="209" width="1" x="149" y="30"/>
    <text font-family="Arial" font-size="16" font-style="italic" x="437" y="275">Time passed</text>
</svg>
