<?xml version="1.0" encoding="UTF-8" standalone="yes"?>
<!-- Generated by https://github.com/RazrFalcon/barh -->
<svg height="214" shape-rendering="crispEdges" width="815" xmlns="http://www.w3.org/2000/svg">
    <text font-family="Arial" font-size="16" font-weight="bold" x="131" y="16">Time to render Oxygen Icon Theme 4.12 (4947 files)</text>
    <text font-family="Arial" font-size="16" x="15" y="58">cairo-backend</text>
    <text font-family="Arial" font-size="16" x="36" y="91">qt-backend</text>
    <text font-family="Arial" font-size="16" x="4" y="122">raqote-backend</text>
    <text font-family="Arial" font-size="16" x="20" y="157">skia-backend</text>
    <rect fill="#ccc" height="143" width="1" x="131" y="30"/>
    <text fill="#000" font-family="Arial" font-size="16" x="114" y="187">0sec</text>
    <rect fill="#ccc" height="143" width="1" x="295" y="30"/>
    <text fill="#000" font-family="Arial" font-size="16" x="274" y="187">40sec</text>
    <rect fill="#ccc" height="143" width="1" x="459" y="30"/>
    <text fill="#000" font-family="Arial" font-size="16" x="438" y="187">80sec</text>
    <rect fill="#ccc" height="143" width="1" x="623" y="30"/>
    <text fill="#000" font-family="Arial" font-size="16" x="597" y="187">120sec</text>
    <rect fill="#ccc" height="143" width="1" x="788" y="30"/>
    <text fill="#000" font-family="Arial" font-size="16" x="762" y="187">160sec</text>
    <rect fill="#3260cd" height="22" width="513" x="131" y="41"/>
    <text fill="#fff" font-family="Arial" font-size="16" x="614" y="58">125</text>
    <rect fill="#3260cd" height="22" width="517" x="131" y="74"/>
    <text fill="#fff" font-family="Arial" font-size="16" x="618" y="91">126</text>
    <rect fill="#3260cd" height="22" width="591" x="131" y="107"/>
    <text fill="#fff" font-family="Arial" font-size="16" x="692" y="122">144</text>
    <rect fill="#3260cd" height="22" width="451" x="131" y="140"/>
    <text fill="#fff" font-family="Arial" font-size="16" x="553" y="157">110</text>
    <rect fill="#333" height="143" width="1" x="131" y="30"/>
    <text font-family="Arial" font-size="16" font-style="italic" x="419" y="209">Time passed</text>
</svg>
