<?xml version="1.0" encoding="UTF-8" standalone="yes"?>
<!-- Generated by https://github.com/RazrFalcon/barh -->
<svg height="214" shape-rendering="crispEdges" width="833" xmlns="http://www.w3.org/2000/svg">
    <text font-family="Arial" font-size="16" font-weight="bold" x="149" y="16">Time to render Oxygen Icon Theme 4.12</text>
    <text font-family="Arial" font-size="16" x="4" y="58">resvg 0.4.0 (cairo)</text>
    <text font-family="Arial" font-size="16" x="25" y="91">resvg 0.4.0 (qt)</text>
    <text font-family="Arial" font-size="16" x="43" y="124">QtSvg 5.11.1</text>
    <text font-family="Arial" font-size="16" x="40" y="157">librsvg 2.45.1</text>
    <rect fill="#ccc" height="143" width="1" x="149" y="30"/>
    <text fill="#000" font-family="Arial" font-size="16" x="132" y="187">0sec</text>
    <rect fill="#ccc" height="143" width="1" x="313" y="30"/>
    <text fill="#000" font-family="Arial" font-size="16" x="292" y="187">60sec</text>
    <rect fill="#ccc" height="143" width="1" x="477" y="30"/>
    <text fill="#000" font-family="Arial" font-size="16" x="451" y="187">120sec</text>
    <rect fill="#ccc" height="143" width="1" x="641" y="30"/>
    <text fill="#000" font-family="Arial" font-size="16" x="615" y="187">180sec</text>
    <rect fill="#ccc" height="143" width="1" x="806" y="30"/>
    <text fill="#000" font-family="Arial" font-size="16" x="780" y="187">240sec</text>
    <rect fill="#3260cd" height="22" width="547" x="149" y="41"/>
    <text fill="#fff" font-family="Arial" font-size="16" x="666" y="58">200</text>
    <rect fill="#3260cd" height="22" width="574" x="149" y="74"/>
    <text fill="#fff" font-family="Arial" font-size="16" x="693" y="91">210</text>
    <rect fill="#3260cd" height="22" width="561" x="149" y="107"/>
    <text fill="#fff" font-family="Arial" font-size="16" x="680" y="124">205</text>
    <rect fill="#3260cd" height="22" width="424" x="149" y="140"/>
    <text fill="#fff" font-family="Arial" font-size="16" x="543" y="157">155</text>
    <rect fill="#333" height="143" width="1" x="149" y="30"/>
    <text font-family="Arial" font-size="16" font-style="italic" x="437" y="209">Time passed</text>
</svg>
