<?xml version="1.0" encoding="UTF-8" standalone="yes"?>
<!-- Generated by https://github.com/RazrFalcon/barh -->
<svg height="214" shape-rendering="crispEdges" width="833" xmlns="http://www.w3.org/2000/svg">
    <text font-family="Arial" font-size="16" font-weight="bold" x="149" y="16">Time to render Elementary OS Icon Theme 5.0</text>
    <text font-family="Arial" font-size="16" x="4" y="56">resvg 0.4.0 (cairo)</text>
    <text font-family="Arial" font-size="16" x="25" y="91">resvg 0.4.0 (qt)</text>
    <text font-family="Arial" font-size="16" x="43" y="124">QtSvg 5.11.1</text>
    <text font-family="Arial" font-size="16" x="40" y="157">librsvg 2.45.1</text>
    <rect fill="#ccc" height="143" width="1" x="149" y="30"/>
    <text fill="#000" font-family="Arial" font-size="16" x="132" y="187">0sec</text>
    <rect fill="#ccc" height="143" width="1" x="314" y="30"/>
    <text fill="#000" font-family="Arial" font-size="16" x="293" y="187">10sec</text>
    <rect fill="#ccc" height="143" width="1" x="480" y="30"/>
    <text fill="#000" font-family="Arial" font-size="16" x="459" y="187">20sec</text>
    <rect fill="#ccc" height="143" width="1" x="645" y="30"/>
    <text fill="#000" font-family="Arial" font-size="16" x="624" y="187">30sec</text>
    <rect fill="#ccc" height="143" width="1" x="811" y="30"/>
    <text fill="#000" font-family="Arial" font-size="16" x="790" y="187">40sec</text>
    <rect fill="#3260cd" height="22" width="364" x="149" y="41"/>
    <text fill="#fff" font-family="Arial" font-size="16" x="492" y="56">22</text>
    <rect fill="#3260cd" height="22" width="628" x="149" y="74"/>
    <text fill="#fff" font-family="Arial" font-size="16" x="756" y="91">38</text>
    <rect fill="#3260cd" height="22" width="496" x="149" y="107"/>
    <text fill="#fff" font-family="Arial" font-size="16" x="624" y="124">30</text>
    <rect fill="#3260cd" height="22" width="314" x="149" y="140"/>
    <text fill="#fff" font-family="Arial" font-size="16" x="442" y="157">19</text>
    <rect fill="#333" height="143" width="1" x="149" y="30"/>
    <text font-family="Arial" font-size="16" font-style="italic" x="437" y="209">Time passed</text>
</svg>
