<?xml version="1.0" encoding="UTF-8" standalone="yes"?>
<!-- Generated by https://github.com/RazrFalcon/barh -->
<svg height="214" shape-rendering="crispEdges" width="815" xmlns="http://www.w3.org/2000/svg">
    <text font-family="Arial" font-size="16" font-weight="bold" x="131" y="16">Time to render Elementary OS Icon Theme 5.0 (3417 files)</text>
    <text font-family="Arial" font-size="16" x="15" y="58">cairo-backend</text>
    <text font-family="Arial" font-size="16" x="36" y="89">qt-backend</text>
    <text font-family="Arial" font-size="16" x="4" y="122">raqote-backend</text>
    <text font-family="Arial" font-size="16" x="20" y="157">skia-backend</text>
    <rect fill="#ccc" height="143" width="1" x="131" y="30"/>
    <text fill="#000" font-family="Arial" font-size="16" x="114" y="187">0sec</text>
    <rect fill="#ccc" height="143" width="1" x="296" y="30"/>
    <text fill="#000" font-family="Arial" font-size="16" x="279" y="187">8sec</text>
    <rect fill="#ccc" height="143" width="1" x="462" y="30"/>
    <text fill="#000" font-family="Arial" font-size="16" x="441" y="187">15sec</text>
    <rect fill="#ccc" height="143" width="1" x="627" y="30"/>
    <text fill="#000" font-family="Arial" font-size="16" x="606" y="187">23sec</text>
    <rect fill="#ccc" height="143" width="1" x="793" y="30"/>
    <text fill="#000" font-family="Arial" font-size="16" x="772" y="187">30sec</text>
    <rect fill="#3260cd" height="22" width="331" x="131" y="41"/>
    <text fill="#fff" font-family="Arial" font-size="16" x="441" y="58">15</text>
    <rect fill="#3260cd" height="22" width="595" x="131" y="74"/>
    <text fill="#fff" font-family="Arial" font-size="16" x="705" y="89">27</text>
    <rect fill="#3260cd" height="22" width="485" x="131" y="107"/>
    <text fill="#fff" font-family="Arial" font-size="16" x="595" y="122">22</text>
    <rect fill="#3260cd" height="22" width="353" x="131" y="140"/>
    <text fill="#fff" font-family="Arial" font-size="16" x="463" y="157">16</text>
    <rect fill="#333" height="143" width="1" x="131" y="30"/>
    <text font-family="Arial" font-size="16" font-style="italic" x="419" y="209">Time passed</text>
</svg>
