<?xml version="1.0"?>
<svg xmlns:rdf="http://www.w3.org/1999/02/22-rdf-syntax-ns#" xmlns="http://www.w3.org/2000/svg" xmlns:cc="http://creativecommons.org/ns#" xmlns:xlink="http://www.w3.org/1999/xlink" xmlns:dc="http://purl.org/dc/elements/1.1/" xmlns:svg="http://www.w3.org/2000/svg" id="svg2" viewBox="0 0 744.09 400" version="1.1">
  <defs id="defs4">
    <linearGradient id="linearGradient11272">
      <stop id="stop11274" stop-color="#41452d" offset="0"/>
      <stop id="stop11276" stop-color="#13140d" offset="1"/>
    </linearGradient>
    <linearGradient id="linearGradient11117">
      <stop id="stop11119" stop-color="#5b6e6e" offset="0"/>
      <stop id="stop11121" stop-color="#313b3b" offset="1"/>
    </linearGradient>
    <linearGradient id="linearGradient11071">
      <stop id="stop11073" stop-color="#bfcfb1" offset="0"/>
      <stop id="stop11075" stop-color="#5e6658" offset="1"/>
    </linearGradient>
    <filter id="filter11214" width="1.0547" y="-.19468" x="-.027375" height="1.3894" color-interpolation-filters="sRGB">
      <feGaussianBlur id="feGaussianBlur11216" stdDeviation="1.3538285"/>
    </filter>
    <filter id="filter11260" width="1.1202" y="-.2384" x="-.060101" height="1.4768" color-interpolation-filters="sRGB">
      <feGaussianBlur id="feGaussianBlur11262" stdDeviation="1.7138127"/>
    </filter>
    <filter id="filter11268" color-interpolation-filters="sRGB">
      <feGaussianBlur id="feGaussianBlur11270" stdDeviation="0.5459045"/>
    </filter>
    <filter id="filter11350" width="1.2377" y="-.28633" x="-.11887" height="1.5727" color-interpolation-filters="sRGB">
      <feGaussianBlur id="feGaussianBlur11352" stdDeviation="0.83139"/>
    </filter>
    <filter id="filter11556" width="1.3144" y="-.18804" x="-.15718" height="1.3761" color-interpolation-filters="sRGB">
      <feGaussianBlur id="feGaussianBlur11558" stdDeviation="3.7462907"/>
    </filter>
    <filter id="filter11560" width="1.4585" y="-.077528" x="-.22927" height="1.1551" color-interpolation-filters="sRGB">
      <feGaussianBlur id="feGaussianBlur11562" stdDeviation="2.7005481"/>
    </filter>
    <filter id="filter11564" width="2.1467" y="-.093773" x="-.57334" height="1.1875" color-interpolation-filters="sRGB">
      <feGaussianBlur id="feGaussianBlur11566" stdDeviation="3.7462907"/>
    </filter>
    <radialGradient id="radialGradient11616" xlink:href="#linearGradient11272" gradientUnits="userSpaceOnUse" cy="352.67" cx="175.78" gradientTransform="matrix(.46351 -.50321 1.3403 1.2346 -378.39 5.726)" r="59.461"/>
    <radialGradient id="radialGradient11618" xlink:href="#linearGradient11117" gradientUnits="userSpaceOnUse" cy="451.99" cx="190.94" gradientTransform="matrix(1 0 0 .33103 0 303.73)" r="44.766"/>
    <radialGradient id="radialGradient11620" xlink:href="#linearGradient11272" gradientUnits="userSpaceOnUse" cy="395.26" cx="510.75" gradientTransform="matrix(1.3643 .48026 -.33184 .94266 -54.882 -215.04)" r="20.991"/>
    <radialGradient id="radialGradient11622" xlink:href="#linearGradient11117" gradientUnits="userSpaceOnUse" cy="421.62" cx="115.57" gradientTransform="matrix(-.13951 .28258 -1.3116 -.64755 709.14 656.3)" r="55.5"/>
    <radialGradient id="radialGradient11624" gradientUnits="userSpaceOnUse" cy="430.61" cx="470.39" gradientTransform="matrix(-1.6446 -.27763 .11775 -.69760 1142.1 829.52)" r="236.6">
      <stop id="stop11165" stop-color="#fff" stop-opacity=".45536" offset="0"/>
      <stop id="stop11167" stop-opacity=".27451" offset=".25229"/>
      <stop id="stop11354" stop-opacity=".63529" offset=".7717"/>
      <stop id="stop11169" offset="1"/>
    </radialGradient>
    <radialGradient id="radialGradient11626" xlink:href="#linearGradient11272" gradientUnits="userSpaceOnUse" cy="405.21" cx="562.65" gradientTransform="matrix(1.547 .61688 -.20239 .50756 -225.79 -124.42)" r="49.044"/>
    <radialGradient id="radialGradient11628" xlink:href="#linearGradient11071" gradientUnits="userSpaceOnUse" cy="375.35" cx="135.94" gradientTransform="matrix(-1.2896 4.8784 -2.4076 .39882 1214.9 -450.07)" r="13.797"/>
    <radialGradient id="radialGradient11630" xlink:href="#linearGradient11071" gradientUnits="userSpaceOnUse" cy="389.21" cx="118.14" gradientTransform="matrix(-2.6007 -.39781 .28223 -1.8451 295.88 1131.1)" r="29.294"/>
    <radialGradient id="radialGradient11632" gradientUnits="userSpaceOnUse" cy="350.04" cx="320.1" gradientTransform="matrix(-.24341 .55840 -2.1093 -.91943 1174.1 587.6)" r="177.5">
      <stop id="stop11101" stop-opacity="0" offset="0"/>
      <stop id="stop11107" stop-opacity=".27451" offset=".59056"/>
      <stop id="stop11103" offset="1"/>
    </radialGradient>
    <radialGradient id="radialGradient11634" xlink:href="#linearGradient11117" gradientUnits="userSpaceOnUse" cy="465.66" cx="278.2" gradientTransform="matrix(-1.2601 -.018532 .0042782 -.29090 627.39 627.93)" r="28.112"/>
  </defs>
  <g id="layer2" transform="translate(0 -652.36)">
    <g id="g11568" transform="translate(-.83615 20.776)">
      <path id="path11422-7" stroke-linejoin="round" d="m157.08 826.85a3.7881 45.204 0 1 1 -7.5761 0 3.7881 45.204 0 1 1 7.5761 0z" transform="matrix(.93503 -.74487 .69344 .38096 -589.67 655.83)" filter="url(#filter11556)" stroke="#000" stroke-linecap="round" stroke-width="1.0704"/>
      <g id="g11358" transform="matrix(.94254 -.33410 .33410 .94254 -85.196 546.27)">
        <path id="path10523" d="m552.3 467.61a2.9042 5.4296 0 1 1 -5.8084 0 2.9042 5.4296 0 1 1 5.8084 0z" transform="matrix(1.7603 .39621 -.26810 1.1911 -293.67 -305.35)" fill="#333"/>
        <path id="path10523-5" d="m552.3 467.61a2.9042 5.4296 0 1 1 -5.8084 0 2.9042 5.4296 0 1 1 5.8084 0z" transform="matrix(1.21 .27437 -.18428 .82485 -29.465 -66.314)" fill="#808080"/>
        <path id="path10543" d="m533.74 454.35 6.3135-0.63134 4.7982 12.627c2.3748 0.61351 4.8566 1.1202 6.3134 2.6516l-0.63134 2.2728c-4.0533 1.8605-7.0702-0.42449-10.48-1.1364-0.60239-0.97109-1.3838-1.7376-0.37881-4.5457z" fill="#41452d"/>
        <path id="path10521" d="m118.02 322.17c-10.689 9.8329 31.819 41.347 47.729 62.02l69.491-5.524c-33.4-24.84-101.52-64.36-117.22-56.5z" fill="url(#radialGradient11616)"/>
        <path id="path10996-8" d="m139.81 338.98c2.0297-5.4502 25.21 1.3408 45.334 12.177 26.834 14.45 33.891 23.259 35.102 29.014 3.4068 16.192-25.365 2.9329-42.361-7.322-19.755-11.919-39.633-29.683-38.074-33.869z" fill="#2e3f53"/>
        <path id="path10996-1-2" d="m155.58 346.56c0.87194-1.8169 11.211 0.59377 20.214 4.3443 12.005 5.0013 15.19 7.9967 15.76 9.9344 1.6034 5.4518-11.256 0.83911-18.866-2.6984-8.8452-4.1117-17.777-10.185-17.108-11.58z" fill="#b9422b"/>
        <path id="path10551" d="m253.55 466.73c-22.385 0.55539-43.967 5.6007-79.297-5.5558l-8.3338-7.0711c-1.9656-7.8871-0.12373-9.7909 0-14.395z" fill="url(#radialGradient11618)"/>
        <path id="path10549" d="m532.5 415.93c-13.226-6.9772-38.992-17.842-41.964-16.071-0.69549 8.3762 18.752 13.022 29.464 19.286z" fill="url(#radialGradient11620)"/>
        <path id="path10496" d="m584.64 370.58c-22.415-3.5103-30.461 39.209-53.571 43.929-8.5522 3.7653-94.916-27.126-144.64-35-33.398-22.51-60.013-3.0994-73.214 2.1429-57.715-10.648-181.18-32.865-183.38-19.663l-10.547 48.234c17.036 34.59 60.614 41.99 104.64 48.929l207.14 6.0714c42.738-3.5714 99.752-4.9465 128.21-10.714 17.024-0.9389 45.274-74.79 25.357-83.929z" fill="#8aa1a8"/>
        <path id="path10496-68" d="m146.76 357.72c-10.13-0.01-16.424 1.1744-16.906 4.0625l-5.4375 24.969 3.3125 16.688c10.495 5.3509 16.282-4.4166 22.656-12.344-2.6691-4.7993-3.6471-9.7269-0.1563-15 3.9927-3.445 8.8107-5.8443 6.0313-18.094-3.439-0.18442-6.6328-0.27845-9.5-0.28125zm434.84 12.469c-20.142 0.60871-28.473 39.627-50.5 44.125-4.6459 2.0455-32.401-6.1802-64.625-15.344-19.626 52.852-49.404 58.568-58.844 65.375l23.469 0.6875c8.3102-0.69444 17.238-1.2982 26.312-1.875 10.642-13.782 19.153-27.028 60.844-33.469 36.147-8.9848 55.554-39.397 69.875-21.719 4.744-17.235 5.2397-33.598-3.4688-37.594-1.0507-0.16455-2.0719-0.21744-3.0625-0.1875zm-247.03 1.9375c-8.9 3.0309-16.137 7.2572-21.312 9.3125-8.4546-1.5598-18.437-3.3726-29.125-5.2812 1.5313 17.307-4.5927 35.194-41.25 55.125-10.284-0.68049-15.357 0.213-21.063 0.90625-3.9294-3.3314-8.127-6.149-13.937-5.7188-5.3919 0.43265-10.59 0.88186-11.781 1.7812l-6.0625-3.9375c-5.4384 0.36793-9.3321 1.1798-11.438 2.5l-10-5c-18.411 2.5545-25.545 6.5531-30 10.906 21.508 15.856 53.319 21.167 85.375 26.219l151.5 4.4688c0.4625-1.652 0.6261-3.5501 0.2813-5.875 3.603-4.8064 6.1257-9.7208 5-15 8.6113-8.3968 17.452-16.741 21.437-26.062-1.0986-11.521 1.7445-23.071-1.8437-34.594-4.8565-1.0079-9.5064-1.8707-13.875-2.5625-2.431-1.6385-4.8309-3.0341-7.1875-4.25l-44.719-2.9375z" fill="#41452d"/>
        <path id="path10551-4" d="m177.47 452.65-1.0827 7.3906-8.3338-7.0711c-1.9656-7.8871 0.0893-7.4304 0.0893-7.4304z" fill="#1b2020"/>
        <path id="path10496-6" d="m121.35 400.94-1.9375 9.3125c17.036 34.59 60.628 41.999 104.66 48.938l4.7188 0.125 0.625-2.625c-55.525-17.535-88.763-36.275-108.06-55.75z" fill="url(#radialGradient11622)"/>
        <path id="path10555" filter="url(#filter11350)" fill="#adcad3" d="m170.71 409.15c-1.1911 1.4881-0.99259 2.9762-0.53572 4.4643 5.8294 3.2427 15.505 2.9702 16.429 1.25-2.0814-2.9173-8.2816-4.5807-15.893-5.7143z"/>
        <path id="path10630" d="m161.88 388.06c-2.2722 1.1226-1.9222 3.1193-1.389 5.177 23.641 5.3193 45.542 7.1578 67.933 9.9752 1.7643-0.5008 1.9798-4.1132 0-6.4397z" fill="#1a1a1a"/>
        <path id="path10826" d="m173.7 394.18c-0.2682 1.9292-3.0196 3.1409-6.1455 2.7064-3.1258-0.43455-5.4424-2.3508-5.1742-4.28 0.26819-1.9292 3.0196-3.1409 6.1455-2.7064 3.1258 0.43455 5.4424 2.3508 5.1742 4.28z" fill="#4d4d4d"/>
        <path id="path10826-3" d="m186.37 396.38c-0.27459 1.9283-3.03 3.1309-6.1544 2.686-3.1244-0.44491-5.4346-2.3688-5.16-4.2971 0.27458-1.9283 3.03-3.1309 6.1544-2.686 3.1244 0.44491 5.4346 2.3688 5.16 4.2971z" fill="#4d4d4d"/>
        <path id="path10826-2" d="m198.82 397.98c-0.17464 1.94-2.8643 3.2832-6.0075 3.0003-3.1432-0.28295-5.5497-2.085-5.3751-4.0249 0.17463-1.9399 2.8643-3.2832 6.0075-3.0003 3.1432 0.28295 5.5497 2.085 5.3751 4.0249z" fill="#4d4d4d"/>
        <path id="path10826-4" d="m211.38 399.77c-0.20249 1.9372-2.9111 3.2417-6.05 2.9136-3.1388-0.32807-5.5192-2.1645-5.3167-4.1017 0.20248-1.9372 2.9111-3.2417 6.05-2.9136 3.1388 0.32807 5.5192 2.1645 5.3167 4.1017z" fill="#4d4d4d"/>
        <path id="path10826-0" d="m225.59 401.46c-0.15462 1.9416-2.8303 3.3126-5.9762 3.0621-3.146-0.25051-5.5709-2.0276-5.4163-3.9692 0.15461-1.9416 2.8302-3.3126 5.9762-3.0621 3.146 0.25051 5.5709 2.0276 5.4163 3.9692z" fill="#4d4d4d"/>
        <path id="path10868" opacity=".62" d="m569.35 375.92 12.258 3.0528c-7.828 25.905-16.991 69.155-29.342 76.786" filter="url(#filter11268)" stroke="#000" stroke-width="1px" fill="none"/>
        <path id="path10974" style="block-progression:tb;color:#000000;text-transform:none;text-indent:0" fill="#eed455" d="m446.28 399.62c-3.9225 0.38793-7.5515 2.5455-10.438 5.7188-3.848 4.231-6.6673 10.307-8.1562 17.344-1.4777 6.984-1.8971 14.933-0.40625 21.594 0.74541 3.3302 1.9619 6.3665 3.9688 8.75s4.8866 4.0342 8.3125 4.3125c6.5476 0.53181 13.281-2.3385 18.781-7 5.5002-4.6615 9.8402-11.224 11.344-18.562 1.805-8.8102-0.52636-16.364-4.5625-21.844-4.0361-5.4796-9.658-8.9965-14.844-10.094-1.3541-0.28651-2.6925-0.34806-4-0.21875z"/>
        <path id="path10965" style="block-progression:tb;color:#000000;text-transform:none;text-indent:0" fill="#2e3f53" d="m446.69 404.38c0.85495-0.077 1.7046-0.00063 2.5938 0.1875 3.7875 0.80136 8.6379 3.6967 11.969 8.2188 3.3308 4.522 5.2565 10.557 3.7188 18.062-1.2478 6.0906-4.97 11.819-9.7188 15.844-4.7488 4.0246-10.431 6.2377-15.281 5.8438-2.2074-0.17929-3.7159-1.0316-5.0312-2.5938s-2.3377-3.8993-2.9688-6.7188c-1.2622-5.6389-0.95371-13.104 0.40625-19.531 1.3487-6.3745 3.9287-11.748 7-15.125 2.3034-2.5327 4.7476-3.9565 7.3125-4.1875z"/>
        <path id="path10976" d="m458.75 427.36a7.9464 11.786 0 1 1 -15.893 0 7.9464 11.786 0 1 1 15.893 0z" transform="matrix(1.0912 .19343 -.21512 .98111 48.503 -77.699)" fill="#fff"/>
        <path id="path10976-0" transform="matrix(.74046 .14946 -.14598 .75811 177.22 37.604)" fill="#b9422b" d="m458.75 427.36a7.9464 11.786 0 1 1 -15.893 0 7.9464 11.786 0 1 1 15.893 0z"/>
        <path id="path10496-1" d="m584.64 370.58c-22.415-3.5103-30.461 39.209-53.571 43.929-8.5522 3.7653-94.916-27.126-144.64-35-33.398-22.51-60.013-3.0994-73.214 2.1429-57.715-10.648-181.18-32.865-183.38-19.663l-10.547 48.234c17.036 34.59 60.614 41.99 104.64 48.929l207.14 6.0714c42.738-3.5714 99.752-4.9465 128.21-10.714 17.024-0.9389 45.274-74.79 25.357-83.929z" fill="url(#radialGradient11624)"/>
        <path id="path10496-2" d="m354.68 368.87c-18.343-0.2082-32.806 9.341-41.469 12.781 1.1808-0.15185 1.7592 0.077 3.0038 0.2781 0.43019 0.0695 1.1351-0.33599 1.5747-0.23606 3.7733 0.85791 7.4595 3.265 8.7878 5.1552 0.49419 0.70319 0.11063 1.8469 0.75866 2.4903 0.70228 0.27623 2.4806-0.16941 3.1915 0.0937 9.107 3.3701 17.793 6.5377 26.79 12.248 0.89612 0.56877 0.90836 2.0462 1.8045 2.6672 0.8884 0.25673 3.1514-0.60623 4.0338-0.40805 15.717 3.5298 29.812 4.9855 42.033 5.0375 4.2696-10.902 4.7069-18.722 1.4911-25.513-7.172-1.6002-14.006-2.9489-20.25-3.9375-11.481-7.738-22.142-10.547-31.75-10.656z" fill="#41452d"/>
        <path id="path10545" d="m531.34 430.36c-1.8298-9.7395 21.2-6.442 29.294-4.2932 24.172 10.16 49.623 19.28 68.69 33.588-21.79 1.1068-65.01-19.216-97.985-29.294z" fill="url(#radialGradient11626)"/>
        <path id="path10498" transform="matrix(.83901 .22256 -.19154 .97492 85.266 -21.965)" fill="url(#radialGradient11628)" d="m150.01 388.06a13.258 26.895 0 1 1 -26.517 0 13.258 26.895 0 1 1 26.517 0z"/>
        <path id="path10498-1" d="m131.18 390.04c-3.4298 11.428-10.092 19.234-14.881 17.437-4.7888-1.7976-44.004-20.309-40.489-32.02 4.0293-13.425 48.121-11.16 52.91-9.3628 4.7888 1.7976 5.8906 12.519 2.4607 23.946z" fill="url(#radialGradient11630)"/>
        <path id="path11196" opacity=".46231" d="m348.5 401.57c-36.115 0.65244-111.96-13.13-118.69-16.668 36.66 3.5268 97.368 9.8538 118.69 16.668z" transform="matrix(1.8956 0 0 2.4158 -261 -559.03)" filter="url(#filter11214)" fill="#fff"/>
        <path id="path10557" d="m488.28 574.69c-0.63135 0.75761-2.9042 14.395-2.9042 14.395l-10.228 0.25254 0.12627 2.1466 14.9 0.12627v-2.2728l-2.0203-0.12627 8.3338-11.364z" fill="#41452d"/>
        <path id="path10519" d="m223.93 459.15c4.122-22.818 146.46-30.524 207.14 6.0714-18.25 3.6871-37.704 4.6594-44.941 17.417-0.74306 11.394 197.29 76.538 191.68 117.18-55.891 9.9577-336.52-129.5-353.88-140.67z" fill="#8aa1a8"/>
        <path id="path10519-5" d="m306.27 439.93c-43.686 0.20433-80.283 7.8097-82.344 19.219 4.6469 2.9903 28.251 15.227 61.281 31.281 26.523-8.4755 53.305-15.852 83.719-7.6875 0.2546-2.0787 1.5756-3.091-3.5937-6.4375-3.0271-7.9599 4.6532-8.1832 9.6562-10.344 2.6517-7.3368 3.8213-13.877 3.25-19.438-23.205-4.698-48.603-6.703-71.969-6.5938zm98.219 54.5c0.0299 12.205 56.079 25.199 33 34.031-2.5983 0.99441-25.345 4.3161-42 12.906 76.566 33.443 155.43 63.258 182.31 58.469 1.1843-8.5666-6.6992-18.239-19.844-28.25-20.378 2.0983-45.588-1.8306-81.719-20.281 2.9981-7.8768 10.649-12.158 20.062-15.062-34.063-16.487-70.537-31.576-91.812-41.812z" fill="#41452d"/>
        <path id="path10996" d="m507.1 555.98c-2.4632 5.7727-34.959-0.19644-63.482-10.524-38.035-13.772-48.353-22.61-50.392-28.546-5.7366-16.701 34.903-4.2618 59.063 5.6092 28.082 11.473 56.703 29.027 54.811 33.461z" fill="#2e3f53"/>
        <path id="path10996-1" d="m474.6 541.37c-1.0666 2.4581-15.195-0.10779-27.599-4.5284-16.541-5.8948-21.032-9.6677-21.922-12.199-2.5048-7.1206 15.167-1.792 25.675 2.4309 12.213 4.9082 24.665 12.408 23.846 14.296z" fill="#b9422b"/>
        <path id="path10519-2" d="m223.93 459.08c4.122-22.818 146.46-30.524 207.14 6.0714-18.25 3.6871-37.704 4.6594-44.941 17.417-0.74306 11.394 197.29 76.538 191.68 117.18-55.891 9.9577-336.52-129.5-353.88-140.67z" fill="url(#radialGradient11632)"/>
        <path id="path10553" d="m304.29 488.97c-7.7602-1.2097-41.572-3.4348-50.179 0.35715l-5-0.17857v1.6071l4.8214 0.53571c0.1227 4.4556 18.915 5.8838 45.357 6.0714 2.856-1.6082 5.4231-3.5054 5-8.3929z" fill="url(#radialGradient11634)"/>
        <path id="path11218" opacity=".41" d="m322.62 456.21c29.626-5.9154 62.662 3.216 68.438 15.405-21.553-9.7521-44.895-12.948-68.438-15.405z" transform="matrix(1.5057 0 0 1.4295 -201.87 -203.64)" filter="url(#filter11260)" fill="#fff"/>
        <path id="path10547" d="m421.23 345.63-12.122 39.396c0.45259 1.2928 1.0211 1.3104 1.6415 0.75761z" fill="#666"/>
        <path id="path10496-2-1" opacity=".9" fill="#1a1a1a" d="m354.67 368.85c-0.95523-0.0108-1.8786 0.0227-2.8125 0.0625 6.7463 9.77 5.3676 26.674 9.1735 28.806 8.3193 3.1456 16.286 3.0826 23.264 3.2876 0.7064 0.0583 2.1109-14.006 0.28125-22.688-10.774-6.8202-20.818-9.3656-29.906-9.4688zm-11.781 2.4062c-8.0628 2.3135-14.586 5.4777-21.406 8.4688 4.1481-0.0111 6.7439 2.1264 9.1562 4.5312 4.7608-3.989 12.536-6.4338 12.25-13zm5.5938 4.125s-14.16 11.71-13.469 11.531c1.2534-0.32347 20.928 9.4786 20.642 9.6499-1.2392-7.1207-2.1048-17.775-7.1735-21.181zm40.406 4.5312c2.2716 7.4284-0.49511 19.186 1.1875 22.969 4.5536 1.8689 9.1339 1.9682 13.688 1.7188 1.5105-2.8774 1.6689-13.311-0.15625-21.812-5.1378-1.1084-10.074-2.0906-14.719-2.875z"/>
        <path id="path10626" d="m354.56 373.92c-2.0658-1.6106-3.435-3.3871-7.1342-4.6088-4.1267-9.5852 8.2751-12.813 3.7881-0.44194 2.7082 1.6836 2.3547 3.3672 3.3461 5.0508z" fill="#4d4d4d"/>
        <path id="path10628" transform="matrix(.78319 .14197 -.13153 .84539 137.34 16.585)" fill="#999" d="m331.84 357.06a1.5784 2.8411 0 1 1 -3.1567 0 1.5784 2.8411 0 1 1 3.1567 0z"/>
      </g>
      <path id="path11422" stroke-linejoin="round" d="m157.08 826.85a3.7881 45.204 0 1 1 -7.5761 0 3.7881 45.204 0 1 1 7.5761 0z" transform="matrix(1.4161 .55371 -.55749 .96805 420.46 -65.786)" filter="url(#filter11560)" stroke="#000" stroke-linecap="round" stroke-width=".77163"/>
      <path id="path11422-7-8" stroke-linejoin="round" d="m157.08 826.85a3.7881 45.204 0 1 1 -7.5761 0 3.7881 45.204 0 1 1 7.5761 0z" transform="matrix(1.1746 .22214 .16403 .77401 -157.1 246.5)" filter="url(#filter11564)" stroke="#000" stroke-linecap="round" stroke-width="1.0704"/>
    </g>
  </g>
  <metadata>
    <rdf:RDF>
      <cc:Work>
        <dc:format>image/svg+xml</dc:format>
        <dc:type rdf:resource="http://purl.org/dc/dcmitype/StillImage"/>
        <cc:license rdf:resource="http://creativecommons.org/licenses/publicdomain/"/>
        <dc:publisher>
          <cc:Agent rdf:about="http://openclipart.org/">
            <dc:title>Openclipart</dc:title>
          </cc:Agent>
        </dc:publisher>
        <dc:title>Supermarine Spitfire</dc:title>
        <dc:date>2013-06-23T06:02:26</dc:date>
        <dc:description>a classic</dc:description>
        <dc:source>http://openclipart.org/detail/179460/supermarine-spitfire-by-rematuche-179460</dc:source>
        <dc:creator>
          <cc:Agent>
            <dc:title>rematuche</dc:title>
          </cc:Agent>
        </dc:creator>
        <dc:subject>
          <rdf:Bag>
            <rdf:li>air</rdf:li>
            <rdf:li>aircraft</rdf:li>
            <rdf:li>airplane</rdf:li>
            <rdf:li>airp&#xC4;&#xBA;anes</rdf:li>
            <rdf:li>allied</rdf:li>
            <rdf:li>battle</rdf:li>
            <rdf:li>british</rdf:li>
            <rdf:li>england</rdf:li>
            <rdf:li>fighter</rdf:li>
            <rdf:li>plane</rdf:li>
            <rdf:li>second</rdf:li>
            <rdf:li>spitfire</rdf:li>
            <rdf:li>supermarine</rdf:li>
            <rdf:li>war</rdf:li>
            <rdf:li>warfare</rdf:li>
            <rdf:li>weapon</rdf:li>
            <rdf:li>weapons</rdf:li>
            <rdf:li>world</rdf:li>
            <rdf:li>ww2</rdf:li>
            <rdf:li>wwii</rdf:li>
          </rdf:Bag>
        </dc:subject>
      </cc:Work>
      <cc:License rdf:about="http://creativecommons.org/licenses/publicdomain/">
        <cc:permits rdf:resource="http://creativecommons.org/ns#Reproduction"/>
        <cc:permits rdf:resource="http://creativecommons.org/ns#Distribution"/>
        <cc:permits rdf:resource="http://creativecommons.org/ns#DerivativeWorks"/>
      </cc:License>
    </rdf:RDF>
  </metadata>
</svg>
