<svg viewBox="0 0 100 100" xmlns="http://www.w3.org/2000/svg">
    <pattern id="patt1" patternUnits="userSpaceOnUse" width="2" height="2" patternTransform="scale(0.5)">
        <circle cx="1" cy="1" r="1" fill="orange"/>
    </pattern>
    <g font-family="Arial" font-size="24" font-weight="bold" fill="url(#patt1)"
       stroke="#e59709" stroke-width="0.5">
        <text x="50" y="35" text-anchor="middle">Hello</text>
        <text x="50" y="60" font-size="32" text-anchor="middle">resvg</text>
    </g>

    <g fill-rule="nonzero" stroke-width=".5">
        <path d="m65.5 80.43c-5.05 0-9.62.61-13.06 1.6v-.22c-3.44 1.1-5.63 2.64-5.63 4.34 0 .27.06.53.16.79l-.35.63s-.28.37.22 1.15c.44.69 2.65 3.37 3.82 4.78.5.72.84 1.16.87 1.12.05-.07-.31-1.42-1.31-2.96-.46-.83-1.03-1.93-1.36-2.74.93.58 2.17 1.12 3.58 1.58v-.01c3.44.99 8.01 1.6 13.06 1.6 5.79 0 10.98-.8 14.46-2.05v-7.56c-3.48-1.25-8.67-2.05-14.46-2.05" fill="#a52b00"/>
        <path d="m85.16 87.44-.59-1.23c0-.05 0-.09 0-.14 0-1.39-1.45-2.67-3.88-3.7v7.4c1.14-.48 2.06-1.01 2.72-1.59-.2.78-.86 2.36-1.39 3.47-.87 1.59-1.18 2.97-1.14 3.03.02.05.32-.41.76-1.15 1.01-1.45 2.94-4.22 3.33-4.92.43-.8.19-1.17.19-1.17" fill="#a52b00"/>
        <path d="m88.6 87.43-3.9-2.87c-.03-.12-.07-.25-.11-.38l1.28-1.85c.13-.19.16-.44.07-.65-.08-.21-.27-.37-.49-.41l-2.16-.36c-.08-.17-.17-.34-.26-.51l.91-2.08c.09-.21.07-.46-.05-.65s-.33-.31-.56-.3l-2.19.08c-.12-.14-.23-.29-.35-.44l.51-2.23c.05-.22-.02-.46-.18-.62-.15-.17-.38-.23-.6-.18l-2.14.52c-.13-.12-.27-.24-.42-.36l.08-2.29c.01-.23-.1-.45-.29-.58-.18-.13-.42-.15-.62-.05l-1.99.95c-.16-.09-.33-.19-.49-.27l-.35-2.26c-.04-.23-.18-.42-.39-.51s-.44-.06-.62.07l-1.78 1.34c-.18-.06-.35-.12-.53-.17l-.77-2.14c-.07-.22-.25-.38-.47-.42-.22-.05-.45.03-.6.2l-1.49 1.67c-.18-.02-.37-.04-.55-.05l-1.15-1.95c-.12-.2-.33-.32-.55-.32s-.43.12-.55.32l-1.15 1.95c-.18.01-.37.03-.55.05l-1.49-1.67c-.15-.17-.38-.25-.6-.2-.22.04-.4.2-.47.42l-.77 2.14c-.18.05-.36.11-.53.17l-1.78-1.34c-.18-.13-.41-.16-.62-.07s-.35.28-.39.51l-.35 2.26c-.16.08-.33.17-.49.27l-1.99-.95c-.2-.1-.44-.08-.63.05-.18.13-.29.35-.28.58l.08 2.29c-.15.12-.29.24-.43.36l-2.13-.52c-.22-.05-.45.01-.61.18-.15.16-.22.4-.17.62l.51 2.23c-.12.15-.24.3-.35.44l-2.19-.08c-.23 0-.44.11-.56.3s-.14.44-.05.65l.91 2.08c-.09.17-.18.34-.26.51l-2.17.36c-.21.04-.4.2-.49.41-.08.21-.05.46.08.65l1.28 1.85c-.01.03-.02.07-.03.1l-3.62 3.84s-.55.44.25 1.46c.71.9 4.37 4.47 6.3 6.34.81.95 1.37 1.54 1.43 1.49.09-.09-.39-1.81-2-3.84-1.23-1.82-2.84-4.62-2.46-4.94 0 0 .42-.54 1.28-.93.04.02-.03-.03 0 0 0 0 18.14 8.36 34.97.14 1.92-.35 3.09.68 3.09.68.4.24-.64 3.11-1.49 5.02-1.17 2.16-1.34 3.84-1.24 3.9.06.04.49-.6 1.09-1.63 1.49-2.07 4.3-6.02 4.82-6.99.58-1.08 0-1.39 0-1.39" fill="#f74c00"/>
        <path d="m71.75 92.73c.07-.06.11-.09.11-.09l-5.94-.55c4.84-6.4 8.72-1.24 9.14-.67v1.31z"/>
        <path d="m48.93 85.69s-4.9-1.91-5.73-3.96c0 0 5.75-4.58-1.13-9.44l-.19 6.2s-2.03-1.97-1.94-5.41c0 0-6.35 3.05 1.08 8.44 0 0 .25 2.9 6.92 6.4z" fill="#f74c00"/>
        <path d="m68.84 83.07s1.82-1.98 3.63 0c0 0 1.42 2.65 0 3.97 0 0-2.33 1.85-3.63 0 0 0-1.55-1.46 0-3.97"/>
        <path d="m70.94 83.81c0 .77-.45 1.4-1.02 1.4-.56 0-1.01-.63-1.01-1.4 0-.78.45-1.4 1.01-1.4.57 0 1.02.62 1.02 1.4" fill="#fff"/>
        <path d="m60.75 82.53s3.11-1.38 3.96 1.69c0 0 .89 3.59-2.55 3.79 0 0-4.39-.85-1.41-5.48"/>
        <path d="m62.31 83.86c0 .79-.47 1.44-1.05 1.44-.57 0-1.04-.65-1.04-1.44 0-.8.47-1.45 1.04-1.45.58 0 1.05.65 1.05 1.45" fill="#fff"/>
        <path d="m80.85 86.44s-.65 2.58-4.69 5.3l-1.13.27s-3.66-6.68-8.85.85c0 0 1.62-.95 5.95.2 0 0-1.99 3.05-6.01 2.96 0 0 3.85 4.62 9.71-2.05 0 0 6.19-2.4 6.7-7.53z" fill="#f74c00"/>
    </g>
</svg>
